<svg width="32" height="32" viewBox="0 0 32 32" fill="none" xmlns="http://www.w3.org/2000/svg">
<path d="M28.436 10.4998C28.3712 10.4334 28.3045 10.3691 28.236 10.3068C28.168 10.2453 28.104 10.1758 28.036 10.114C27.968 10.0523 27.904 9.98275 27.836 9.92125C27.768 9.8595 27.704 9.79 27.636 9.72825C27.568 9.6665 27.504 9.59725 27.436 9.5355C27.368 9.47375 27.304 9.40425 27.236 9.3425C27.168 9.28075 27.104 9.2115 27.036 9.14975C29.02 11.0297 30.1567 13.5878 30.2 16.27C30.2 22.6613 23.472 27.8608 15.2 27.8608C10.568 27.8608 6.42397 26.2292 3.66797 23.6717L3.86797 23.8647L4.06797 24.0575L4.26797 24.2505L4.46797 24.4433L4.66797 24.6362L4.86797 24.829L5.06797 25.0217C7.81997 27.6873 12.056 29.4035 16.8 29.4035C25.072 29.4035 31.8 24.2043 31.8 17.8323C31.8 15.109 30.584 12.5285 28.436 10.4998Z" fill="black"/>
<path d="M29.2 16.27C29.2 22.1367 22.932 26.8925 15.2 26.8925C7.46795 26.8925 1.19995 22.1367 1.19995 16.27C1.19995 12.6325 3.59995 9.41975 7.28795 7.51425C10.976 5.60875 13.272 3.657 15.2 3.657C17.128 3.657 18.7759 5.25 23.1119 7.5145C26.7999 9.41925 29.2 12.6325 29.2 16.27Z" fill="#FBF0DF"/>
<path d="M29.2001 16.27C29.1981 15.5155 29.0904 14.7651 28.8801 14.0405C27.7881 26.8847 11.5401 27.502 5.1521 23.6605C8.0236 25.8065 11.5671 26.9465 15.2001 26.8925C22.9201 26.8925 29.2001 22.129 29.2001 16.27Z" fill="#F6DECE"/>
<path d="M9.81195 6.8085C11.6 5.77475 13.976 3.8345 16.312 3.83075C15.9518 3.71857 15.5771 3.66003 15.2 3.657C14.232 3.657 13.2 4.1395 11.9 4.8645C11.448 5.119 10.98 5.4005 10.484 5.69375C9.55195 6.24925 8.48395 6.87775 7.28395 7.5065C3.47595 9.493 1.19995 12.7677 1.19995 16.27V16.729C3.62395 8.47075 8.02795 7.84225 9.81195 6.8085Z" fill="#FFFEFC"/>
<path d="M14.0479 4.633C14.053 5.54594 13.8545 6.44852 13.4666 7.275C13.0739 8.11041 12.5037 8.85016 11.7959 9.44275C11.6839 9.53925 11.7719 9.7245 11.9159 9.67025C13.2639 9.16525 15.0839 7.65325 14.3159 4.60225C14.2839 4.4285 14.0479 4.47475 14.0479 4.633ZM14.9559 4.633C15.4436 5.3983 15.7549 6.26251 15.8674 7.163C15.9786 8.05975 15.8874 8.969 15.5999 9.8285C15.5519 9.9635 15.7239 10.0793 15.8199 9.9675C16.6959 8.8875 17.4599 6.74275 15.1719 4.4285C15.0559 4.3285 14.8759 4.4825 14.9559 4.6175V4.633ZM16.0599 4.5675C16.8214 5.08554 17.4626 5.76122 17.9401 6.54875C18.4113 7.32667 18.7049 8.19902 18.7999 9.1035C18.7959 9.136 18.8049 9.1685 18.8251 9.19475C18.8461 9.22097 18.8761 9.23848 18.9093 9.24388C18.9424 9.24928 18.9764 9.2422 19.0046 9.224C19.0325 9.20611 19.0524 9.17804 19.0599 9.14575C19.4279 7.79975 19.2199 5.50475 16.1919 4.31275C16.0319 4.25125 15.9279 4.4595 16.0599 4.552V4.5675ZM8.67589 8.57875C9.58277 8.31872 10.4262 7.87428 11.1534 7.27325C11.8706 6.68068 12.4536 5.94245 12.8639 5.1075C12.9359 4.9685 13.1639 5.0225 13.1279 5.17675C12.4359 8.2625 10.1199 8.90675 8.67989 8.82175C8.52789 8.82575 8.53189 8.62125 8.67589 8.57875Z" fill="#CCBEA7"/>
<path d="M15.2 27.8607C6.92795 27.8607 0.199951 22.6612 0.199951 16.27C0.199951 12.4127 2.67195 8.81425 6.81195 6.658C8.01195 6.04075 9.03995 5.41975 9.95595 4.876C10.46 4.57525 10.936 4.2935 11.396 4.03125C12.8 3.229 14 2.69275 15.2 2.69275C16.4 2.69275 17.448 3.15575 18.76 3.904C19.16 4.124 19.56 4.363 19.988 4.62525C20.984 5.21925 22.108 5.89025 23.5879 6.658C27.7279 8.81425 30.2 12.409 30.2 16.27C30.2 22.6612 23.472 27.8607 15.2 27.8607ZM15.2 3.65725C14.232 3.65725 13.2 4.13925 11.9 4.8645C11.448 5.119 10.98 5.4005 10.484 5.69375C9.55195 6.24925 8.48395 6.87775 7.28395 7.5065C3.47595 9.493 1.19995 12.7677 1.19995 16.27C1.19995 22.129 7.47995 26.8965 15.2 26.8965C22.92 26.8965 29.2 22.129 29.2 16.27C29.2 12.7675 26.924 9.493 23.1119 7.51425C21.6 6.74275 20.42 6.01775 19.464 5.44675C19.028 5.1885 18.628 4.94925 18.264 4.73725C17.052 4.04275 16.168 3.65725 15.2 3.65725Z" fill="black"/>
<path d="M18.0201 19.0858C17.8403 19.7955 17.4313 20.4315 16.8521 20.9025C16.4116 21.3115 15.85 21.566 15.2521 21.6275C14.6362 21.576 14.0549 21.3209 13.6001 20.9025C13.0268 20.4295 12.6236 19.7935 12.4481 19.0858C12.4423 19.0437 12.4466 19.0008 12.4606 18.9608C12.4747 18.9203 12.4979 18.8837 12.5286 18.8538C12.5601 18.8236 12.5979 18.8007 12.6393 18.7868C12.6807 18.7729 12.7247 18.7683 12.7681 18.7733H17.7041C17.7472 18.7689 17.7907 18.774 17.8316 18.7882C17.8725 18.8025 17.9098 18.8255 17.9408 18.8557C17.9712 18.8851 17.9942 18.9213 18.008 18.9613C18.0218 19.0012 18.0259 19.0439 18.0201 19.0858Z" fill="#B71422"/>
<path d="M13.6 20.9332C14.0539 21.352 14.6331 21.6096 15.248 21.6662C15.8616 21.6088 16.4392 21.3513 16.892 20.9332C17.0347 20.8051 17.1684 20.6673 17.292 20.5207C17.0435 20.2496 16.7426 20.0315 16.4075 19.8797C16.069 19.7262 15.7035 19.6413 15.332 19.6297C14.9348 19.6384 14.5452 19.7405 14.1948 19.9277C13.8489 20.1124 13.5529 20.378 13.332 20.702C13.424 20.7827 13.504 20.86 13.6 20.9332Z" fill="#FF6164"/>
<path d="M13.664 20.6285C13.8644 20.3797 14.1181 20.1792 14.4065 20.0418C14.6982 19.9025 15.0168 19.8289 15.34 19.8263C15.9349 19.8416 16.5038 20.0734 16.94 20.4783C17.032 20.3818 17.12 20.2815 17.204 20.1813C16.6953 19.7138 16.0225 19.448 15.32 19.4368C14.9455 19.4397 14.576 19.5228 14.2363 19.6805C13.9003 19.8362 13.6025 20.0637 13.364 20.347C13.4585 20.446 13.5588 20.54 13.664 20.6285Z" fill="black"/>
<path d="M15.236 21.859C14.574 21.8046 13.9484 21.5335 13.456 21.0875C12.8368 20.5825 12.401 19.9 12.212 19.1398C12.1985 19.0723 12.2008 19.0023 12.2188 18.9355C12.237 18.8684 12.2703 18.8063 12.316 18.754C12.3715 18.6898 12.4407 18.6389 12.5185 18.6053C12.5971 18.571 12.6824 18.5546 12.768 18.5573H17.704C17.7898 18.5555 17.8748 18.5723 17.953 18.6063C18.0308 18.6399 18.1001 18.6904 18.156 18.754C18.2015 18.807 18.2343 18.869 18.2515 18.936C18.269 19.0028 18.2705 19.0723 18.256 19.1398C18.067 19.9003 17.631 20.5825 17.012 21.0875C16.5208 21.5327 15.8967 21.8038 15.236 21.859ZM12.768 19.0048C12.704 19.0048 12.688 19.0318 12.684 19.0395C12.853 19.699 13.2355 20.2893 13.776 20.725C14.1763 21.1028 14.6889 21.3398 15.236 21.4C15.7819 21.3404 16.2939 21.1063 16.696 20.7325C17.2348 20.2963 17.6158 19.706 17.784 19.0473C17.7752 19.0348 17.7631 19.025 17.749 19.019C17.7349 19.0129 17.7194 19.0106 17.704 19.0125L12.768 19.0048Z" fill="black"/>
<path d="M21.2881 19.325C22.5806 19.325 23.6281 18.7307 23.6281 17.998C23.6281 17.2652 22.5806 16.6712 21.2881 16.6712C19.9956 16.6712 18.9481 17.2652 18.9481 17.998C18.9481 18.7307 19.9956 19.325 21.2881 19.325ZM9.18009 19.325C10.4726 19.325 11.5201 18.7307 11.5201 17.998C11.5201 17.2652 10.4726 16.6712 9.18009 16.6712C7.88759 16.6712 6.84009 17.2652 6.84009 17.998C6.84009 18.7307 7.88759 19.325 9.18009 19.325Z" fill="#FEBBD0"/>
<path d="M10.2801 17.4657C10.7143 17.467 11.1397 17.3434 11.5056 17.1095C11.8656 16.8799 12.1488 16.5481 12.3191 16.1565C12.4863 15.7698 12.5307 15.341 12.4461 14.9282C12.3599 14.5127 12.1501 14.133 11.8441 13.839C11.5323 13.5396 11.1403 13.3372 10.7156 13.2565C10.2882 13.1741 9.84608 13.2157 9.44158 13.3765C9.04188 13.5346 8.69756 13.8068 8.45158 14.1592C8.21022 14.5059 8.08059 14.9181 8.08008 15.3405C8.08008 15.9035 8.31183 16.4435 8.72433 16.8417C9.13683 17.2402 9.69633 17.4647 10.2801 17.4657ZM20.1881 17.4657C20.6228 17.4693 21.0494 17.3475 21.4168 17.115C21.7783 16.8868 22.0635 16.5558 22.2356 16.1645C22.4047 15.778 22.4508 15.3488 22.3676 14.9352C22.2827 14.519 22.0737 14.1383 21.7681 13.8432C21.4569 13.5426 21.065 13.339 20.6401 13.2572C20.2123 13.1739 19.7695 13.215 19.3643 13.3755C18.964 13.5332 18.6191 13.8054 18.3726 14.158C18.1306 14.5049 18.0006 14.9175 18.0001 15.3405C17.9991 15.9017 18.2286 16.4405 18.6388 16.839C19.0488 17.2372 19.6061 17.4627 20.1881 17.4657Z" fill="black"/>
<path d="M9.59988 15.4755C9.7631 15.4764 9.92315 15.4303 10.0609 15.3427C10.1976 15.2552 10.3044 15.131 10.3676 14.9852C10.4309 14.84 10.4479 14.6788 10.4164 14.5235C10.3843 14.3673 10.3057 14.2244 10.1909 14.1137C10.0738 14.001 9.92651 13.9247 9.76688 13.8942C9.60622 13.8631 9.43999 13.8786 9.28788 13.939C9.13762 13.9983 9.00815 14.1006 8.91563 14.233C8.82484 14.3633 8.77608 14.5182 8.77588 14.677C8.77588 14.888 8.86263 15.0905 9.01688 15.2402C9.17368 15.3908 9.38253 15.4752 9.59988 15.4755ZM19.5079 15.4755C19.6711 15.4764 19.8311 15.4303 19.9689 15.3427C20.1056 15.2552 20.2124 15.131 20.2756 14.9852C20.3389 14.84 20.3559 14.6788 20.3244 14.5235C20.2923 14.3673 20.2137 14.2244 20.0989 14.1137C19.9818 14.001 19.8345 13.9247 19.6749 13.8942C19.5142 13.8631 19.348 13.8786 19.1959 13.939C19.0456 13.9983 18.9161 14.1006 18.8236 14.233C18.7328 14.3633 18.6841 14.5182 18.6839 14.677C18.6839 14.887 18.7694 15.088 18.9221 15.2375C19.0746 15.387 19.2821 15.4725 19.4999 15.4755H19.5079Z" fill="white"/>
</svg>
