<svg width="33" height="32" viewBox="0 0 33 32" fill="none" xmlns="http://www.w3.org/2000/svg">
<path d="M16.6094 32C25.4459 32 32.6094 24.8366 32.6094 16C32.6094 7.16344 25.4459 0 16.6094 0C7.77282 0 0.609375 7.16344 0.609375 16C0.609375 24.8366 7.77282 32 16.6094 32Z" fill="#1794D4"/>
<path d="M18.8951 5.71429H16.6094V8H18.8951V5.71429Z" fill="white"/>
<path d="M9.7522 9.14286H12.0379V11.4286H9.7522V9.14286Z" fill="white"/>
<path d="M5.18268 17.0759C5.37798 20.3917 7.35264 25.1429 14.3238 25.1429C22.0952 25.1429 25.5618 19.4286 26.3238 16.5714C27.2761 16.5714 29.4095 16 30.3238 13.7143C29.7523 13.1429 27.4666 13.1429 26.3238 13.7143C26.3238 12.8 25.7523 10.8571 24.6095 10.2857C23.8475 11.0477 22.6666 13.0286 24.038 14.8571C23.4666 16 21.9428 16 21.1809 16H6.25851C5.65339 16 5.14709 16.4718 5.18268 17.0759Z" fill="white"/>
<path d="M8.60944 12.5714H6.32373V14.8571H8.60944V12.5714Z" fill="white"/>
<path d="M9.7522 12.5714H12.0379V14.8571H9.7522V12.5714Z" fill="white"/>
<path d="M15.4666 12.5714H13.1809V14.8571H15.4666V12.5714Z" fill="white"/>
<path d="M16.6094 12.5714H18.8951V14.8571H16.6094V12.5714Z" fill="white"/>
<path d="M22.3236 12.5714H20.0378V14.8571H22.3236V12.5714Z" fill="white"/>
<path d="M15.4666 9.14286H13.1809V11.4286H15.4666V9.14286Z" fill="white"/>
<path d="M16.6094 9.14286H18.8951V11.4286H16.6094V9.14286Z" fill="white"/>
</svg>
