<svg width="32" height="32" viewBox="0 0 32 32" fill="none" xmlns="http://www.w3.org/2000/svg">
<path d="M12.2675 8.165C8.67498 7.51 5.83748 8.195 4.70498 10.165C3.85998 11.6275 4.10248 13.5675 5.28998 15.64C5.31411 15.682 5.34628 15.7189 5.38466 15.7485C5.42303 15.7781 5.46686 15.7998 5.51364 15.8125C5.56042 15.8251 5.60923 15.8284 5.65729 15.8222C5.70534 15.816 5.75171 15.8004 5.79373 15.7762C5.83575 15.7521 5.87261 15.7199 5.9022 15.6816C5.93179 15.6432 5.95353 15.5994 5.96619 15.5526C5.97884 15.5058 5.98215 15.457 5.97594 15.4089C5.96973 15.3609 5.95411 15.3145 5.92998 15.2725C4.85998 13.405 4.64998 11.73 5.34248 10.5225C6.28248 8.895 8.81498 8.2725 12.135 8.8875C12.2311 8.90507 12.3303 8.88373 12.4107 8.82817C12.4911 8.77261 12.5462 8.68739 12.5637 8.59125C12.5813 8.49511 12.56 8.39593 12.5044 8.31552C12.4488 8.23511 12.3636 8.18007 12.2675 8.1625V8.165ZM7.15748 18.1525C8.75932 19.8692 10.6141 21.3311 12.6575 22.4875C17.8675 25.4875 23.4075 26.3 26.1575 24.435C26.238 24.38 26.2934 24.2952 26.3115 24.1993C26.3295 24.1034 26.3088 24.0043 26.2537 23.9237C26.1987 23.8432 26.1139 23.7878 26.018 23.7697C25.9222 23.7517 25.823 23.7725 25.7425 23.8275C23.2775 25.5 18 24.73 13.0175 21.8475C11.0429 20.7284 9.25066 19.3146 7.70248 17.655C7.63618 17.5827 7.54388 17.5398 7.44589 17.5355C7.3479 17.5313 7.25225 17.5662 7.17998 17.6325C7.10771 17.6988 7.06474 17.7911 7.06052 17.8891C7.0563 17.9871 7.09118 18.0827 7.15748 18.155V18.1525Z" fill="#47848F"/>
<path d="M25.2649 17.7025C27.6174 14.925 28.4374 12.13 27.3074 10.175C26.4774 8.735 24.7199 7.975 22.3849 7.945C22.2871 7.945 22.1933 7.98385 22.1241 8.053C22.055 8.12216 22.0161 8.21595 22.0161 8.31375C22.0161 8.41155 22.055 8.50534 22.1241 8.57449C22.1933 8.64365 22.2871 8.6825 22.3849 8.6825C24.4849 8.71 25.9974 9.365 26.6799 10.545C27.6174 12.17 26.8849 14.6625 24.7124 17.23C24.6812 17.2669 24.6576 17.3097 24.6429 17.3557C24.6282 17.4018 24.6228 17.4503 24.6268 17.4984C24.6309 17.5466 24.6444 17.5935 24.6666 17.6365C24.6888 17.6794 24.7192 17.7176 24.7561 17.7488C24.7931 17.7799 24.8358 17.8035 24.8819 17.8182C24.9279 17.8329 24.9764 17.8384 25.0246 17.8343C25.0728 17.8302 25.1196 17.8167 25.1626 17.7946C25.2055 17.7724 25.2437 17.7419 25.2749 17.705L25.2649 17.7025ZM19.2224 8.2875C16.9141 8.81133 14.7006 9.68832 12.6599 10.8875C7.28239 14 3.77239 18.5725 4.24989 21.8925C4.25695 21.9417 4.27364 21.9891 4.29901 22.0319C4.32438 22.0747 4.35792 22.1121 4.39774 22.1419C4.43755 22.1718 4.48285 22.1934 4.53105 22.2058C4.57924 22.2181 4.6294 22.2208 4.67864 22.2138C4.72789 22.2067 4.77526 22.19 4.81806 22.1646C4.86086 22.1393 4.89824 22.1057 4.92807 22.0659C4.9579 22.0261 4.97959 21.9808 4.99192 21.9326C5.00424 21.8844 5.00695 21.8342 4.99989 21.785C4.55739 18.8375 7.88239 14.5 13.0274 11.5275C15.0014 10.3633 17.1433 9.51071 19.3774 9C19.4247 8.98982 19.4695 8.97043 19.5093 8.94294C19.549 8.91544 19.583 8.88038 19.6093 8.83976C19.6355 8.79913 19.6535 8.75374 19.6621 8.70616C19.6708 8.65859 19.6701 8.60978 19.6599 8.5625C19.6497 8.51522 19.6303 8.47042 19.6028 8.43063C19.5753 8.39085 19.5403 8.35687 19.4997 8.33064C19.459 8.30441 19.4136 8.28643 19.3661 8.27774C19.3185 8.26906 19.2697 8.26982 19.2224 8.28V8.2875Z" fill="#47848F"/>
<path d="M10.5 24.195C11.75 27.6275 13.75 29.75 16.0125 29.75C17.6625 29.75 19.1875 28.625 20.3775 26.645C20.4299 26.5618 20.4471 26.4612 20.4253 26.3653C20.4035 26.2694 20.3445 26.1861 20.2613 26.1338C20.178 26.0814 20.0774 26.0642 19.9816 26.086C19.8857 26.1078 19.8024 26.1668 19.75 26.25C18.68 28.03 17.3675 29 16.015 29C14.135 29 12.3425 27.115 11.205 23.94C11.1719 23.8482 11.1036 23.7733 11.0152 23.7318C10.9268 23.6903 10.8256 23.6856 10.7338 23.7188C10.6419 23.7519 10.567 23.8202 10.5255 23.9086C10.484 23.9969 10.4794 24.0982 10.5125 24.19L10.5 24.195ZM21.75 23.5225C22.4151 21.3091 22.7446 19.0086 22.7275 16.6975C22.7275 10.595 20.5925 5.3375 17.55 3.985C17.5057 3.9653 17.4579 3.95453 17.4094 3.95329C17.3609 3.95205 17.3127 3.96038 17.2674 3.97779C17.2222 3.9952 17.1808 4.02136 17.1456 4.05477C17.1104 4.08817 17.0822 4.12818 17.0625 4.1725C17.0227 4.26201 17.0201 4.36366 17.0553 4.45509C17.0905 4.54651 17.1605 4.62022 17.25 4.66C19.9625 5.865 22 10.855 22 16.6975C22.0166 18.934 21.6981 21.1604 21.055 23.3025C21.0406 23.3486 21.0353 23.3972 21.0397 23.4453C21.044 23.4934 21.0577 23.5403 21.0801 23.5831C21.1025 23.6259 21.1331 23.6639 21.1702 23.6949C21.2073 23.7259 21.2501 23.7493 21.2963 23.7638C21.3424 23.7782 21.3909 23.7834 21.4391 23.7791C21.4872 23.7748 21.534 23.7611 21.5768 23.7387C21.6197 23.7163 21.6577 23.6856 21.6887 23.6485C21.7197 23.6115 21.7431 23.5686 21.7575 23.5225H21.75ZM28.6775 23.1625C28.6775 22.8139 28.5741 22.4732 28.3805 22.1833C28.1868 21.8935 27.9115 21.6676 27.5895 21.5342C27.2674 21.4008 26.9131 21.3659 26.5712 21.4339C26.2293 21.5019 25.9152 21.6697 25.6687 21.9162C25.4222 22.1627 25.2544 22.4768 25.1864 22.8187C25.1184 23.1605 25.1533 23.5149 25.2867 23.837C25.4201 24.159 25.646 24.4343 25.9358 24.628C26.2257 24.8216 26.5664 24.925 26.915 24.925C27.1465 24.925 27.3757 24.8794 27.5895 24.7908C27.8033 24.7023 27.9976 24.5724 28.1613 24.4088C28.3249 24.2451 28.4548 24.0508 28.5433 23.837C28.6319 23.6231 28.6775 23.394 28.6775 23.1625ZM27.94 23.1625C27.94 23.3652 27.8799 23.5634 27.7673 23.732C27.6546 23.9005 27.4946 24.0319 27.3073 24.1095C27.12 24.1871 26.9139 24.2074 26.715 24.1678C26.5162 24.1283 26.3336 24.0306 26.1902 23.8873C26.0469 23.7439 25.9493 23.5613 25.9097 23.3625C25.8702 23.1636 25.8905 22.9575 25.968 22.7703C26.0456 22.583 26.177 22.4229 26.3456 22.3102C26.5141 22.1976 26.7123 22.1375 26.915 22.1375C27.1869 22.1375 27.4476 22.2455 27.6398 22.4377C27.832 22.6299 27.94 22.8907 27.94 23.1625ZM5.08501 24.925C5.4336 24.925 5.77436 24.8216 6.0642 24.628C6.35404 24.4343 6.57995 24.159 6.71335 23.837C6.84675 23.5149 6.88165 23.1605 6.81364 22.8187C6.74564 22.4768 6.57778 22.1627 6.33129 21.9162C6.0848 21.6697 5.77075 21.5019 5.42886 21.4339C5.08697 21.3659 4.73259 21.4008 4.41053 21.5342C4.08848 21.6676 3.81321 21.8935 3.61954 22.1833C3.42588 22.4732 3.32251 22.8139 3.32251 23.1625C3.32251 23.6299 3.5082 24.0782 3.83873 24.4088C4.16927 24.7393 4.61757 24.925 5.08501 24.925ZM5.08501 24.1875C4.88228 24.1875 4.68411 24.1274 4.51555 24.0148C4.34699 23.9021 4.21561 23.742 4.13803 23.5548C4.06045 23.3675 4.04016 23.1614 4.0797 22.9625C4.11925 22.7637 4.21688 22.5811 4.36023 22.4377C4.50357 22.2944 4.68621 22.1967 4.88504 22.1572C5.08387 22.1176 5.28997 22.1379 5.47726 22.2155C5.66455 22.2931 5.82464 22.4245 5.93727 22.593C6.04989 22.7616 6.11001 22.9598 6.11001 23.1625C6.11001 23.4344 6.00202 23.6951 5.80979 23.8873C5.61757 24.0795 5.35686 24.1875 5.08501 24.1875Z" fill="#47848F"/>
<path d="M16.0125 5.7825C16.3611 5.7825 16.7018 5.67913 16.9917 5.48547C17.2815 5.2918 17.5074 5.01653 17.6408 4.69448C17.7742 4.37243 17.8091 4.01805 17.7411 3.67615C17.6731 3.33426 17.5053 3.02021 17.2588 2.77372C17.0123 2.52723 16.6982 2.35937 16.3563 2.29137C16.0145 2.22336 15.6601 2.25826 15.338 2.39166C15.016 2.52506 14.7407 2.75097 14.547 3.04081C14.3534 3.33065 14.25 3.67141 14.25 4.02C14.25 4.48744 14.4357 4.93574 14.7662 5.26628C15.0968 5.59681 15.5451 5.7825 16.0125 5.7825ZM16.0125 5.045C15.8098 5.045 15.6116 4.98489 15.443 4.87226C15.2745 4.75963 15.1431 4.59955 15.0655 4.41225C14.9879 4.22496 14.9676 4.01886 15.0072 3.82003C15.0467 3.6212 15.1444 3.43857 15.2877 3.29522C15.4311 3.15187 15.6137 3.05425 15.8125 3.0147C16.0114 2.97515 16.2175 2.99544 16.4048 3.07302C16.592 3.1506 16.7521 3.28198 16.8648 3.45054C16.9774 3.6191 17.0375 3.81727 17.0375 4.02C17.0375 4.29185 16.9295 4.55256 16.7373 4.74478C16.5451 4.93701 16.2843 5.045 16.0125 5.045ZM16.2825 17.9425C16.0361 17.9976 15.7789 17.9784 15.5434 17.8871C15.308 17.7959 15.1049 17.6368 14.96 17.43C14.8151 17.2233 14.7348 16.9781 14.7294 16.7257C14.724 16.4732 14.7936 16.2248 14.9295 16.012C15.0654 15.7992 15.2614 15.6316 15.4928 15.5303C15.7241 15.429 15.9802 15.3987 16.2288 15.4432C16.4773 15.4877 16.7071 15.605 16.8889 15.7803C17.0707 15.9555 17.1964 16.1808 17.25 16.4275C17.3215 16.7566 17.2599 17.1007 17.0787 17.3845C16.8974 17.6684 16.6112 17.869 16.2825 17.9425Z" fill="#47848F"/>
</svg>
