<svg width="33" height="32" viewBox="0 0 33 32" fill="none" xmlns="http://www.w3.org/2000/svg">
<path fill-rule="evenodd" clip-rule="evenodd" d="M16.6094 16C16.6094 13.7909 18.4003 12 20.6094 12C22.8185 12 24.6094 13.7909 24.6094 16C24.6094 18.2091 22.8185 20 20.6094 20C18.4003 20 16.6094 18.2091 16.6094 16Z" fill="#1ABCFE"/>
<path fill-rule="evenodd" clip-rule="evenodd" d="M8.60938 24C8.60938 21.7909 10.4002 20 12.6094 20H16.6094V24C16.6094 26.2091 14.8185 28 12.6094 28C10.4002 28 8.60938 26.2091 8.60938 24Z" fill="#0ACF83"/>
<path fill-rule="evenodd" clip-rule="evenodd" d="M16.6094 4V12H20.6094C22.8185 12 24.6094 10.2091 24.6094 8C24.6094 5.79086 22.8185 4 20.6094 4H16.6094Z" fill="#FF7262"/>
<path fill-rule="evenodd" clip-rule="evenodd" d="M8.60938 8C8.60938 10.2091 10.4002 12 12.6094 12H16.6094V4H12.6094C10.4002 4 8.60938 5.79086 8.60938 8Z" fill="#F24E1E"/>
<path fill-rule="evenodd" clip-rule="evenodd" d="M8.60938 16C8.60938 18.2091 10.4002 20 12.6094 20H16.6094V12H12.6094C10.4002 12 8.60938 13.7909 8.60938 16Z" fill="#A259FF"/>
</svg>
