<svg width="32" height="32" viewBox="0 0 32 32" fill="none" xmlns="http://www.w3.org/2000/svg">
<g clip-path="url(#clip0_2005_206)">
<path d="M31.1843 14.5945L17.4053 0.816004C16.6123 0.0225036 15.3253 0.0225036 14.531 0.816004L11.67 3.6775L15.2995 7.307C16.1433 7.02225 17.1103 7.21325 17.7825 7.8855C18.4583 8.562 18.6478 9.53725 18.356 10.3838L21.854 13.882C22.7003 13.5903 23.677 13.7788 24.3525 14.4558C25.2975 15.4 25.2975 16.9308 24.3525 17.8755C24.1279 18.1002 23.8613 18.2784 23.5678 18.4C23.2744 18.5216 22.9598 18.5842 22.6421 18.5842C22.3245 18.5842 22.0099 18.5216 21.7164 18.4C21.423 18.2784 21.1563 18.1002 20.9318 17.8755C20.5944 17.5379 20.3644 17.108 20.2707 16.64C20.1771 16.172 20.224 15.6867 20.4055 15.2453L17.1435 11.9833L17.143 20.5685C17.3797 20.6851 17.5958 20.8394 17.7828 21.0255C18.7273 21.9698 18.7273 23.5 17.7828 24.4463C16.838 25.3905 15.3068 25.3905 14.363 24.4463C13.4185 23.5003 13.4185 21.97 14.363 21.0255C14.5893 20.7989 14.8584 20.6195 15.1548 20.498V11.8333C14.8582 11.7121 14.589 11.5326 14.363 11.3055C13.6475 10.5905 13.4753 9.5405 13.8423 8.6615L10.264 5.08325L0.816003 14.5308C0.434833 14.912 0.220703 15.4291 0.220703 15.9683C0.220703 16.5074 0.434833 17.0245 0.816003 17.4058L14.5953 31.1843C15.3888 31.9778 16.6753 31.9778 17.47 31.1843L31.1845 17.4698C31.5656 17.0884 31.7796 16.5712 31.7796 16.0321C31.7795 15.4929 31.5654 14.9758 31.1843 14.5945Z" fill="#F34F29"/>
</g>
<defs>
<clipPath id="clip0_2005_206">
<rect width="32" height="32" fill="white"/>
</clipPath>
</defs>
</svg>
