<svg width="32" height="32" viewBox="0 0 32 32" fill="none" xmlns="http://www.w3.org/2000/svg">
<path fill-rule="evenodd" clip-rule="evenodd" d="M16.0001 1.27575C7.66333 1.27575 0.903076 8.0345 0.903076 16.3727C0.903076 23.0432 5.22883 28.702 11.2273 30.6985C11.9816 30.8385 12.2586 30.371 12.2586 29.9722C12.2586 29.6122 12.2446 28.423 12.2381 27.1615C8.03808 28.0748 7.15183 25.3803 7.15183 25.3803C6.46508 23.6353 5.47558 23.1712 5.47558 23.1712C4.10558 22.2342 5.57883 22.2537 5.57883 22.2537C7.09458 22.36 7.89308 23.8095 7.89308 23.8095C9.23958 26.117 11.4248 25.45 12.2863 25.0645C12.4218 24.0888 12.8131 23.4225 13.2448 23.0455C9.89158 22.6642 6.36633 21.3695 6.36633 15.5847C6.36633 13.9365 6.95633 12.5897 7.92208 11.5322C7.76508 11.1522 7.24833 9.61675 8.06808 7.53725C8.06808 7.53725 9.33558 7.1315 12.2206 9.08475C13.4251 8.75 14.7168 8.58175 16.0001 8.576C17.2826 8.58175 18.5751 8.7495 19.7818 9.08425C22.6633 7.131 23.9293 7.53675 23.9293 7.53675C24.7511 9.616 24.2343 11.1517 24.0776 11.5317C25.0456 12.5892 25.6313 13.936 25.6313 15.5842C25.6313 21.3827 22.0996 22.6593 18.7378 23.0333C19.2796 23.5018 19.7621 24.4208 19.7621 25.829C19.7621 27.849 19.7446 29.4748 19.7446 29.972C19.7446 30.3738 20.0166 30.8445 20.7816 30.6963C26.7766 28.6978 31.0973 23.0407 31.0973 16.3727C31.0971 8.035 24.3376 1.27575 16.0001 1.27575Z" fill="white"/>
<path d="M6.62114 22.9515C6.58789 23.0265 6.46989 23.049 6.36239 22.9977C6.25239 22.9487 6.19114 22.8465 6.22664 22.7712C6.25914 22.6937 6.37739 22.6725 6.48664 22.7242C6.59664 22.7735 6.65914 22.8767 6.62089 22.9517L6.62114 22.9515ZM7.23264 23.6337C7.16089 23.7005 7.02014 23.6695 6.92464 23.5637C6.82564 23.4587 6.80714 23.318 6.88039 23.2502C6.95489 23.1837 7.09139 23.2152 7.19039 23.3202C7.28889 23.4267 7.30839 23.5662 7.23289 23.634L7.23264 23.6337ZM7.82814 24.503C7.73564 24.5675 7.58414 24.5072 7.49064 24.373C7.39814 24.2385 7.39814 24.0772 7.49314 24.013C7.58639 23.9485 7.73564 24.0067 7.83064 24.1397C7.92264 24.276 7.92264 24.4375 7.82814 24.503ZM8.64339 25.3432C8.56089 25.4345 8.38439 25.41 8.25539 25.2857C8.12364 25.164 8.08689 24.9907 8.16964 24.8997C8.25364 24.8082 8.43089 24.8337 8.56064 24.9572C8.69239 25.0787 8.73214 25.2522 8.64389 25.343L8.64339 25.3432ZM9.76839 25.831C9.73164 25.9492 9.56214 26.003 9.39089 25.9525C9.22014 25.9007 9.10839 25.7625 9.14339 25.643C9.17839 25.5237 9.34914 25.468 9.52139 25.5217C9.69214 25.5732 9.80389 25.7107 9.76839 25.831ZM11.0041 25.9212C11.0084 26.0457 10.8634 26.1487 10.6841 26.1512C10.5034 26.1555 10.3571 26.0545 10.3554 25.932C10.3554 25.8062 10.4974 25.7045 10.6779 25.701C10.8571 25.6977 11.0044 25.7977 11.0044 25.921L11.0041 25.9212ZM12.1536 25.7257C12.1751 25.847 12.0504 25.9717 11.8721 26.005C11.6971 26.0375 11.5346 25.962 11.5121 25.8417C11.4906 25.7172 11.6176 25.5925 11.7926 25.5602C11.9711 25.5295 12.1311 25.6025 12.1536 25.7257Z" fill="white"/>
</svg>
