<svg width="32" height="32" viewBox="0 0 32 32" fill="none" xmlns="http://www.w3.org/2000/svg">
<g clip-path="url(#clip0_2006_1622)">
<path d="M18.8501 0.0749969C18.6251 0.0749969 18.4001 0.124997 18.2001 0.199997C18.6251 0.474997 18.8501 0.849997 18.9751 1.275C18.9751 1.325 19.0001 1.375 19.0001 1.425C19.0001 1.475 19.0251 1.525 19.0251 1.575C19.0501 2.3 18.8251 2.4 18.6751 2.825C18.4251 3.375 18.5001 3.975 18.8001 4.45C18.8251 4.5 18.8501 4.575 18.9001 4.625C18.5751 2.525 20.3251 2.225 20.6501 1.575C20.6751 0.999997 20.2001 0.624997 19.8251 0.349997C19.4501 0.124997 19.1501 0.0749969 18.8501 0.0749969ZM21.4751 0.524997C21.4501 0.724997 21.4751 0.674997 21.4501 0.774997C21.4501 0.849997 21.4501 0.924997 21.4251 0.999997C21.4001 1.075 21.4001 1.125 21.3751 1.2C21.3501 1.275 21.3251 1.325 21.3001 1.4C21.2751 1.45 21.2501 1.5 21.2251 1.575C21.2001 1.6 21.1751 1.65 21.1501 1.675C21.1251 1.7 21.1251 1.725 21.1001 1.75C21.0501 1.8 21.0251 1.875 20.9751 1.925L20.8251 2.075C20.7751 2.125 20.7251 2.175 20.6751 2.2C20.5001 2.325 20.3001 2.425 20.1251 2.55C20.0751 2.6 20.0001 2.625 19.9501 2.675C19.9001 2.725 19.8501 2.75 19.8001 2.8L19.6501 2.95C19.6001 3 19.5501 3.05 19.5251 3.125C19.4751 3.175 19.4501 3.25 19.4001 3.3C19.3751 3.375 19.3501 3.425 19.3001 3.5C19.2751 3.575 19.2501 3.625 19.2251 3.7C19.2001 3.775 19.1751 3.85 19.1751 3.9C19.1751 3.925 19.1751 3.975 19.1501 4C19.1501 4.025 19.1501 4.075 19.1251 4.1V4.45C19.1251 4.525 19.1251 4.575 19.1501 4.65C19.1501 4.725 19.1751 4.775 19.2001 4.85C19.2251 4.925 19.2501 4.975 19.2751 5.05C19.3001 5.1 19.3251 5.125 19.3251 5.175L17.4251 4.45C17.1001 4.35 16.8001 4.275 16.4751 4.2C16.3001 4.15 16.1251 4.125 15.9501 4.075C15.4501 3.975 14.9501 3.9 14.4501 3.85H14.4001C13.9001 3.8 13.4251 3.775 12.9251 3.775C12.5501 3.775 12.2001 3.8 11.8501 3.825C11.3501 3.85 10.8501 3.925 10.3501 4L9.9751 4.075C9.7251 4.125 9.4751 4.175 9.2251 4.25C9.1001 4.275 8.9751 4.325 8.8501 4.35C8.7251 4.4 8.6001 4.45 8.5001 4.5C8.4001 4.55 8.3251 4.575 8.2251 4.625C8.2001 4.625 8.2001 4.625 8.1751 4.65C8.1001 4.7 8.0251 4.725 7.9501 4.775C7.9251 4.775 7.9001 4.8 7.9001 4.8C7.8001 4.85 7.7251 4.9 7.6501 4.925C7.6001 4.95 7.5251 4.975 7.4751 5C7.4501 5.025 7.4251 5.025 7.4001 5.05C7.3251 5.1 7.2501 5.125 7.1751 5.175C7.1001 5.225 7.0251 5.25 6.9751 5.3C6.9251 5.35 6.8501 5.375 6.8001 5.425C6.8001 5.425 6.7751 5.425 6.7751 5.45C6.7251 5.475 6.6751 5.525 6.6251 5.575L6.6001 5.6C6.5501 5.625 6.5251 5.675 6.4751 5.7C6.4501 5.7 6.4501 5.725 6.4251 5.725C6.3751 5.75 6.3501 5.8 6.3001 5.825C6.3001 5.85 6.2751 5.85 6.2751 5.85L6.1251 6L6.1001 6.025L5.9501 6.175C5.9501 6.175 5.9501 6.2 5.9251 6.2L5.8001 6.325C5.7751 6.35 5.7501 6.35 5.7501 6.375L5.6001 6.525C5.6001 6.55 5.5751 6.55 5.5751 6.575L5.3751 6.775L5.3501 6.8C5.2251 6.95 5.0751 7.075 4.9251 7.2C4.7751 7.325 4.6251 7.45 4.4501 7.575C4.2751 7.7 4.1251 7.8 3.9501 7.9C3.7751 8 3.6001 8.075 3.4251 8.15C3.2501 8.225 3.0751 8.3 2.9001 8.35C2.5501 8.425 2.2001 8.575 1.9001 8.6C1.9001 8.475 1.8251 8.5 1.7501 8.5C1.6751 8.525 1.6001 8.525 1.5501 8.55C1.4751 8.575 1.4251 8.6 1.3501 8.625C1.2751 8.65 1.2251 8.675 1.1501 8.725C1.1001 8.775 1.0251 8.8 0.975098 8.85C0.925098 8.9 0.850098 8.95 0.800098 9C0.750098 9.05 0.675098 9.1 0.625098 9.15C0.575098 9.2 0.525098 9.25 0.475098 9.325C0.425098 9.4 0.375098 9.45 0.350098 9.525C0.300098 9.575 0.275098 9.65 0.225098 9.725C0.200098 9.8 0.150098 9.875 0.125098 9.95L0.0500977 10.175C0.0250977 10.25 0.0250977 10.3 9.76566e-05 10.375V10.4C-0.0249023 10.475 -0.0249023 10.575 -0.0249023 10.625C9.76566e-05 10.6 9.76566e-05 10.65 9.76566e-05 10.7V10.8C9.76566e-05 10.85 0.0250977 10.9 0.0250977 10.95C0.0500977 11 0.0500977 11.05 0.0750977 11.1C0.100098 11.15 0.125098 11.2 0.175098 11.25C0.200098 11.3 0.250098 11.35 0.275098 11.4C0.325098 11.45 0.375098 11.5 0.425098 11.525C0.475098 11.575 0.525098 11.625 0.575098 11.65C0.775098 11.825 0.825098 11.875 1.0751 12.025C1.1251 12.05 1.1501 12.075 1.2001 12.1H1.2251V12.15C1.2251 12.225 1.2501 12.275 1.2751 12.35C1.3001 12.425 1.3251 12.5 1.3501 12.55L1.4251 12.7C1.4251 12.725 1.4501 12.725 1.4501 12.75C1.4751 12.825 1.5251 12.875 1.5501 12.925C1.6001 12.975 1.6251 13.05 1.6751 13.1L1.8251 13.25L1.9751 13.4H2.0001C2.0501 13.45 2.1001 13.475 2.1501 13.525C2.2001 13.575 2.2751 13.6 2.3251 13.625C2.3751 13.65 2.4501 13.7 2.5251 13.725C2.5751 13.75 2.6251 13.775 2.7001 13.775C2.7001 13.775 2.7251 13.775 2.7251 13.8C2.7501 13.8 2.8001 13.825 2.8251 13.825C2.8001 14.275 2.8001 14.7 2.8501 14.85C2.9251 15.025 3.3001 14.5 3.6501 13.925C3.6001 14.5 3.5751 15.175 3.6501 15.375C3.7501 15.575 4.2251 14.925 4.6751 14.225C10.5251 12.875 15.8751 16.925 16.4501 22.65C16.3501 21.75 15.2501 21.25 14.7251 21.375C14.4751 21.975 14.0501 22.775 13.3751 23.25C13.4251 22.7 13.4001 22.15 13.3001 21.6C13.1251 22.35 12.7751 23.075 12.2751 23.675C11.5001 23.725 10.7001 23.35 10.3001 22.775C10.2751 22.75 10.2501 22.7 10.2251 22.675C10.2001 22.625 10.1751 22.55 10.1501 22.5C10.1251 22.45 10.1001 22.375 10.1001 22.325V22.15V22.025C10.1001 21.975 10.1251 21.9 10.1501 21.85C10.1751 21.8 10.1751 21.725 10.2001 21.675C10.2251 21.625 10.2501 21.55 10.3001 21.5C10.4501 21.1 10.4501 20.775 10.1751 20.6L10.0251 20.525C10.0001 20.525 9.9501 20.5 9.9251 20.5C9.9001 20.5 9.8751 20.475 9.8501 20.475C9.8001 20.45 9.7251 20.45 9.6751 20.425C9.6251 20.4 9.5501 20.4 9.5001 20.4C9.4501 20.4 9.3751 20.375 9.3251 20.375H9.2001C9.1251 20.375 9.0751 20.375 9.0251 20.4C8.9751 20.4 8.9001 20.425 8.8501 20.425C8.8001 20.45 8.7251 20.45 8.6751 20.475C8.6251 20.5 8.5751 20.525 8.5001 20.55L8.3501 20.625C6.4251 21.875 7.5751 24.825 8.8751 25.675C8.3751 25.775 7.8751 25.875 7.7251 25.975L7.7001 26C8.0501 26.225 8.4251 26.4 8.8251 26.55C9.3501 26.725 9.9251 26.875 10.1751 26.95C10.8501 27.1 11.5501 27.15 12.2501 27.1C15.9001 26.85 18.9001 24.05 19.4501 20.4C19.4751 20.475 19.4751 20.55 19.5001 20.625C19.5251 20.775 19.5501 20.925 19.5751 21.1C19.6001 21.175 19.6001 21.25 19.6001 21.325V21.35C19.6001 21.425 19.6251 21.5 19.6251 21.575C19.6251 21.675 19.6501 21.75 19.6501 21.85V22.9C19.6501 22.975 19.6251 23.025 19.6251 23.1V23.175C19.6251 23.25 19.6001 23.325 19.6001 23.425C19.5751 23.5 19.5751 23.575 19.5501 23.65V23.675C19.5251 23.75 19.5251 23.825 19.5001 23.9V23.925C19.4751 24 19.4751 24.075 19.4501 24.15V24.175L19.3751 24.4V24.425C19.3501 24.5 19.3251 24.6 19.3001 24.675C19.2751 24.75 19.2501 24.825 19.2001 24.925C19.1751 25 19.1501 25.1 19.1001 25.175C19.0751 25.25 19.0251 25.325 19.0001 25.425C18.9751 25.5 18.9251 25.575 18.9001 25.65C18.9001 25.675 18.8751 25.7 18.8751 25.7C18.8751 25.7 18.8751 25.725 18.8501 25.725C18.3251 26.8 17.5251 27.75 16.5251 28.5C16.4501 28.55 16.4001 28.6 16.3251 28.65C16.3001 28.675 16.2751 28.675 16.2751 28.7C16.2251 28.75 16.1501 28.775 16.1001 28.825L16.1251 28.875C16.2501 28.85 16.3501 28.85 16.4751 28.825C16.7001 28.8 16.9001 28.75 17.1251 28.7C17.1751 28.7 17.2501 28.675 17.3001 28.65C17.3501 28.65 17.3751 28.625 17.4251 28.625C17.4751 28.625 17.5501 28.6 17.6001 28.6C17.6501 28.575 17.7001 28.575 17.7501 28.55C18.5751 28.35 19.3751 28.075 20.1501 27.75C18.8251 29.55 17.0751 31 15.0251 31.95C15.9751 31.875 16.9251 31.725 17.8501 31.45C21.1751 30.475 23.9751 28.225 25.6501 25.2C25.3001 27.1 24.5501 28.925 23.4251 30.525C24.2251 30 24.9501 29.375 25.6251 28.7C27.4751 26.775 28.7001 24.3 29.1001 21.675C29.3751 22.975 29.4751 24.325 29.3501 25.65C35.3251 17.325 29.8501 8.7 27.5501 6.425C27.5501 6.4 27.5251 6.4 27.5251 6.375C27.5251 6.475 27.5251 6.575 27.5001 6.675C27.4751 6.875 27.4501 7.05 27.4251 7.225C27.3751 7.4 27.3251 7.6 27.2751 7.775C27.2251 7.95 27.1501 8.125 27.0751 8.3C27.0001 8.475 26.9251 8.65 26.8251 8.8C26.7251 8.95 26.6251 9.125 26.5251 9.275C26.4251 9.425 26.3001 9.575 26.1751 9.725C26.0501 9.875 25.9251 10 25.7751 10.15C25.7001 10.225 25.6251 10.3 25.5251 10.35C25.4501 10.4 25.4001 10.45 25.3251 10.525C25.1751 10.65 25.0251 10.75 24.8501 10.85C24.7001 10.95 24.5251 11.05 24.3501 11.125L23.8251 11.35C23.6501 11.425 23.4751 11.475 23.3001 11.525C23.1251 11.575 22.9251 11.625 22.7501 11.65C22.5501 11.675 22.3751 11.7 22.2001 11.725C22.0751 11.725 21.9251 11.75 21.8001 11.75C21.6001 11.75 21.4251 11.725 21.2501 11.725C21.0501 11.7 20.8751 11.675 20.7001 11.65C20.5001 11.625 20.3251 11.575 20.1501 11.5C20.3251 11.475 20.5251 11.475 20.7001 11.425C20.9001 11.4 21.0751 11.35 21.2501 11.3C21.4251 11.25 21.6251 11.2 21.7751 11.125L22.3001 10.9C22.4751 10.825 22.6251 10.725 22.8001 10.625C22.9501 10.525 23.1251 10.4 23.2751 10.3C23.4251 10.175 23.5751 10.05 23.7001 9.925C23.8501 9.8 23.9751 9.65 24.1001 9.525C24.2251 9.375 24.3501 9.225 24.4501 9.075C24.4751 9.05 24.4751 9.025 24.5001 9C24.5751 8.875 24.6751 8.725 24.7501 8.6C24.8501 8.425 24.9251 8.275 25.0001 8.1C25.0751 7.925 25.1501 7.75 25.2001 7.575L25.3501 7.05C25.3751 6.85 25.4251 6.675 25.4251 6.5C25.4501 6.3 25.4501 6.125 25.4501 5.95C25.4501 5.825 25.4501 5.675 25.4251 5.55C25.4001 5.35 25.3751 5.175 25.3501 5C25.3251 4.8 25.2751 4.625 25.2251 4.45C25.1751 4.275 25.1001 4.1 25.0501 3.925C24.9751 3.75 24.9001 3.575 24.8251 3.425C24.7251 3.25 24.6501 3.1 24.5501 2.925C24.4501 2.775 24.3251 2.625 24.2251 2.475C24.1001 2.325 23.9751 2.2 23.8501 2.05C23.7751 1.975 23.7001 1.9 23.6251 1.85C23.2501 1.55 22.8751 1.3 22.4751 1.05C22.4251 1.025 22.3751 0.999997 22.3001 0.974997C21.9751 0.699997 21.7251 0.624997 21.4751 0.524997Z" fill="#DF234F"/>
</g>
<defs>
<clipPath id="clip0_2006_1622">
<rect width="32" height="32" fill="white"/>
</clipPath>
</defs>
</svg>
