<svg width="32" height="32" viewBox="0 0 32 32" fill="none" xmlns="http://www.w3.org/2000/svg">
<g clip-path="url(#clip0_2005_212)">
<path fill-rule="evenodd" clip-rule="evenodd" d="M12.5615 10.404C11.641 10.1728 10.7192 10.247 9.7465 10.3985C9.7465 12.0998 9.743 13.7552 9.75575 15.411C9.75625 15.4958 9.8835 15.6433 9.966 15.6545C11.0267 15.7978 12.0817 15.8092 13.0737 15.3258C14.1 14.8258 14.6228 13.7802 14.4873 12.5527C14.3643 11.435 13.7025 10.6908 12.5615 10.404ZM31.75 15.9908V0.82125C31.75 0.29725 31.7558 0.25 31.247 0.25H0.86975C0.375 0.25 0.25 0.2975 0.25 0.7965V31.1737C0.25 31.6782 0.313 31.679 0.80225 31.679C10.941 31.6793 21.11 31.6768 31.2488 31.6882C31.642 31.6887 31.7475 31.584 31.7465 31.1985C31.733 26.1292 31.75 21.0595 31.75 15.9908ZM14.088 17.4508C12.6988 17.9463 11.25 17.974 9.75 17.8577V23.5H7V23.1495C7 18.4258 6.97825 13.7025 6.965 8.979C6.9635 8.58675 7.02575 8.39725 7.46775 8.35225C9.55075 8.13925 11.622 7.89975 13.6932 8.3855C15.9198 8.90725 17.2035 10.3792 17.301 12.413C17.4218 14.9315 16.315 16.6565 14.088 17.4508ZM25.1655 20.6392C25.0595 22.082 24.246 23.0292 22.9118 23.4872C21.1263 24.1003 19.3505 23.958 17.6055 23.2645C17.3197 23.1507 17.2645 23.0068 17.3587 22.7155C17.5305 22.184 17.6562 21.6375 17.7887 21.144C18.5265 21.3605 19.228 21.6307 19.9548 21.7585C20.468 21.8487 21.0228 21.7958 21.5445 21.714C22.0123 21.6405 22.3488 21.323 22.4255 20.821C22.5035 20.3107 22.3498 19.8687 21.8993 19.5972C21.5413 19.3818 21.1467 19.2275 20.7685 19.0467C20.1602 18.756 19.512 18.528 18.951 18.1642C16.7432 16.7325 17.462 14.0685 18.9352 13.0653C19.7235 12.5288 20.5957 12.2908 21.5295 12.258C22.6277 12.2195 23.6853 12.409 24.724 12.9137L24.1752 14.861C23.7402 14.707 23.3352 14.507 22.9077 14.4275C22.4005 14.333 21.8685 14.2802 21.3565 14.322C20.67 14.3782 20.268 14.852 20.268 15.4395C20.268 15.7875 20.4 16.082 20.6903 16.2507C21.1068 16.493 21.5487 16.6928 21.9867 16.8955C22.4608 17.1147 22.9613 17.2833 23.4175 17.5335C24.635 18.201 25.2688 19.2335 25.1655 20.6392Z" fill="#80B5E2"/>
</g>
<defs>
<clipPath id="clip0_2005_212">
<rect width="32" height="32" fill="white"/>
</clipPath>
</defs>
</svg>
