<svg width="33" height="32" viewBox="0 0 33 32" fill="none" xmlns="http://www.w3.org/2000/svg">
<path d="M12.9395 7.36H12.4695V9.7975H12.9395V7.36ZM14.962 7.36H14.492V9.7975H14.962V7.36ZM17.727 2.71L17.2445 1.875L9.19946 6.525L9.68196 7.36L17.727 2.71Z" fill="#3BBCED"/>
<path d="M17.6794 2.71L18.1619 1.875L26.2069 6.525L25.7244 7.36L17.6794 2.71Z" fill="#3BBCED"/>
<path d="M27.6294 7.3725V6.4075H5.58936V7.3725H27.6294Z" fill="#3BBCED"/>
<path d="M18.902 21.0025V6.7H19.867V21.695C19.6095 21.4025 19.2795 21.19 18.902 21.0025ZM17.257 20.755V0.580002H18.222V20.8725C17.9495 20.7425 17.292 20.755 17.257 20.755ZM8.11949 22.7675C6.94449 21.8975 6.16699 20.5075 6.16699 18.93C6.16699 18.095 6.38949 17.27 6.80199 16.5525H15.0345C15.457 17.27 15.6695 18.095 15.6695 18.93C15.6695 19.66 15.5745 20.3425 15.282 20.955C14.6595 20.355 13.742 20.095 12.812 20.095C11.1645 20.095 9.75449 21.12 9.38949 22.65C9.25949 22.6375 9.17699 22.6275 9.04949 22.6275C8.72949 22.6375 8.42449 22.685 8.11949 22.7675Z" fill="#3BBCED"/>
<path d="M12.1644 10.88H9.67188V13.3875H12.1644V10.88ZM9.35188 10.88H6.85938V13.3875H9.35188V10.88ZM9.35188 13.67H6.85938V16.1775H9.35188V13.67ZM12.1644 13.67H9.67188V16.1775H12.1644V13.67ZM14.9619 13.67H12.4694V16.1775H14.9619V13.67ZM14.9619 9.5375H12.4694V12.045H14.9619V9.5375Z" fill="#3BBCED"/>
<path d="M9.7993 23.145C10.1393 21.6975 11.4468 20.615 12.9993 20.615C13.9993 20.615 14.8918 21.0625 15.5043 21.77C16.0343 21.405 16.6693 21.1925 17.3618 21.1925C19.1718 21.1925 20.6418 22.6625 20.6418 24.4775C20.6418 24.855 20.5843 25.2075 20.4668 25.5475C20.8668 26.09 21.1143 26.7725 21.1143 27.5025C21.1143 29.315 19.6443 30.7875 17.8318 30.7875C17.0318 30.7875 16.3018 30.505 15.7393 30.035C15.1393 30.87 14.1643 31.425 13.0568 31.425C11.7868 31.425 10.6818 30.695 10.1293 29.635C9.9068 29.6825 9.6818 29.705 9.4468 29.705C7.6368 29.705 6.1543 28.2325 6.1543 26.42C6.1543 24.6075 7.6243 23.135 9.4468 23.135C9.5643 23.1225 9.6818 23.1225 9.7993 23.145Z" fill="#3BBCED"/>
</svg>
