<svg width="32" height="32" viewBox="0 0 32 32" fill="none" xmlns="http://www.w3.org/2000/svg">
<path d="M23.4522 23.028C23.6484 21.3948 23.5897 21.155 24.8062 21.4198L25.1149 21.4468C26.0504 21.4893 27.2742 21.2963 27.9932 20.9623C29.5409 20.244 30.4584 19.0453 28.9327 19.36C25.4517 20.0783 25.2124 18.8995 25.2124 18.8995C28.8882 13.4458 30.4247 6.5225 29.0982 4.82775C25.4807 0.205502 19.2189 2.39125 19.1142 2.44775L19.0807 2.454C18.3929 2.31125 17.6232 2.226 16.7584 2.212C15.1832 2.186 13.9879 2.625 13.0812 3.3125C13.0812 3.3125 1.91044 -1.28975 2.43019 9.10025C2.54069 11.3105 5.59819 25.8248 9.24519 21.4408C10.5782 19.8378 11.8662 18.4823 11.8662 18.4823C12.5057 18.907 13.2717 19.124 14.0747 19.046L14.1369 18.993C14.1174 19.192 14.1259 19.3868 14.1617 19.6173C13.2224 20.667 13.4984 20.8513 11.6202 21.2378C9.71969 21.6293 10.8362 22.3265 11.5649 22.5088C12.4487 22.7298 14.4929 23.0428 15.8744 21.1093L15.8194 21.3298C16.1879 21.6248 16.1632 23.449 16.2152 24.7523C16.2674 26.0558 16.3547 27.272 16.6204 27.9893C16.8862 28.7063 17.1997 30.5533 19.6682 30.0243C21.7312 29.5833 23.3084 28.947 23.4522 23.028Z" fill="black"/>
<path d="M18.8644 31.314C17.7726 31.314 17.0616 30.8917 16.6299 30.484C15.9781 29.869 15.7196 29.0767 15.5651 28.6035L15.4984 28.406C15.1874 27.5665 15.0819 26.3577 15.0194 24.8013C15.0099 24.5675 15.0034 24.3268 14.9961 24.0715C14.9909 23.8848 14.9844 23.6505 14.9749 23.4055C14.5816 23.593 14.1641 23.725 13.7344 23.7975C12.9646 23.929 12.1371 23.8865 11.2744 23.6707C10.6656 23.5185 10.0331 23.203 9.67263 22.7157C8.62188 23.636 7.61963 23.5112 7.07363 23.329C6.11038 23.0077 5.24838 22.105 4.43813 20.5697C3.86088 19.476 3.30263 18.051 2.77863 16.334C1.86613 13.344 1.28638 10.1947 1.23488 9.16075C1.07288 5.9245 1.94413 3.61 3.82388 2.28225C6.78913 0.187749 11.2819 1.4195 12.9199 1.97875C14.0204 1.3155 15.3151 0.992749 16.7781 1.016C17.5639 1.02875 18.3121 1.09775 19.0071 1.22175C19.7321 0.993749 21.1641 0.666499 22.8034 0.686999C25.8236 0.722999 28.3264 1.9 30.0406 4.09075C31.2641 5.65375 30.6591 8.936 30.1899 10.7535C29.5294 13.31 28.3721 16.029 26.9506 18.396C27.3366 18.3988 27.8959 18.3525 28.6909 18.1882C30.2594 17.8645 30.7181 18.7055 30.8426 19.082C31.3414 20.5925 29.1734 21.734 28.4971 22.048C27.6306 22.4503 26.2179 22.6952 25.0609 22.6423L25.0104 22.639L24.7064 22.6122L24.6764 22.8657L24.6474 23.1135C24.5696 26.1133 24.1411 28.013 23.2594 29.2682C22.3351 30.5842 21.0506 30.953 19.9191 31.1955C19.5331 31.278 19.1824 31.314 18.8644 31.314ZM16.5669 20.3962C17.2716 20.9602 17.3334 22.0215 17.3886 24.0047C17.3956 24.2522 17.4021 24.4865 17.4109 24.7052C17.4374 25.3678 17.4996 26.919 17.7426 27.5745C17.7769 27.6672 17.8076 27.7612 17.8401 27.861C18.1109 28.69 18.2466 29.1057 19.4174 28.8555C20.4001 28.6447 20.9054 28.4557 21.3009 27.8927C21.8756 27.0742 22.1971 25.4277 22.2561 22.999L23.4519 23.028L22.2644 22.8855L22.2994 22.589C22.4131 21.6115 22.4951 20.9055 23.1484 20.4385C23.6726 20.064 24.2699 20.1003 24.7456 20.186C24.2229 19.791 24.0784 19.3278 24.0399 19.1378L23.9401 18.6465L24.2204 18.2307C25.8346 15.8357 27.1656 12.8922 27.8726 10.1547C28.5991 7.342 28.3776 5.84825 28.1561 5.56575C25.2239 1.819 20.1391 3.366 19.6081 3.5415L19.5184 3.59L19.0684 3.67375L18.8379 3.626C18.2024 3.494 17.4964 3.421 16.7396 3.40875C15.5506 3.38875 14.5914 3.66975 13.8049 4.2665L13.2591 4.68025L12.6259 4.4195C11.2729 3.86625 7.29888 2.754 5.20188 4.23925C4.03788 5.06375 3.50763 6.67925 3.62563 9.041C3.66463 9.82075 4.19438 12.7725 5.06838 15.6352C6.27613 19.5915 7.37363 20.9058 7.83188 21.0585C7.91188 21.0855 8.11938 20.9242 8.32588 20.6763C9.18689 19.6441 10.0784 18.6378 10.9994 17.6588L11.6919 16.93L12.5291 17.4862C12.8666 17.7105 13.2389 17.8377 13.6211 17.8617L15.6179 16.1587L15.3286 19.1108C15.3221 19.177 15.3189 19.2673 15.3449 19.4347L15.4319 19.9942L15.0544 20.4163L15.0109 20.4653L16.1079 20.9715L16.5669 20.3962Z" fill="black"/>
<path d="M28.9327 19.36C25.4514 20.0783 25.2122 18.8995 25.2122 18.8995C28.8879 13.4455 30.4244 6.522 29.0984 4.82775C25.4809 0.205749 19.2187 2.3915 19.1142 2.44825L19.0804 2.45425C18.3927 2.3115 17.6229 2.2265 16.7577 2.2125C15.1824 2.18675 13.9877 2.6255 13.0809 3.313C13.0809 3.313 1.90994 -1.289 2.42944 9.10075C2.53994 11.3112 5.59744 25.8255 9.24444 21.4415C10.5774 19.8385 11.8652 18.483 11.8652 18.483C12.5049 18.9077 13.2707 19.1247 14.0734 19.0467L14.1359 18.9937C14.1164 19.1927 14.1254 19.3875 14.1609 19.618C13.2214 20.6677 13.4974 20.852 11.6192 21.2385C9.71869 21.63 10.8352 22.3273 11.5642 22.5095C12.4477 22.7305 14.4922 23.0435 15.8734 21.11L15.8182 21.3305C16.1864 21.6255 16.4449 23.2485 16.4017 24.7197C16.3582 26.191 16.3292 27.2013 16.6194 27.9902C16.9094 28.7792 17.1984 30.5542 19.6674 30.0252C21.7304 29.5833 22.7994 28.4375 22.9484 26.5265C23.0539 25.1678 23.2927 25.3687 23.3079 24.154L23.4997 23.579C23.7207 21.7373 23.5347 21.1432 24.8059 21.4195L25.1147 21.4465C26.0502 21.489 27.2744 21.296 27.9932 20.962C29.5407 20.2442 30.4584 19.0452 28.9327 19.36Z" fill="#336791"/>
<path d="M18.9892 30.5768C16.9312 30.5768 16.2792 28.947 16.0125 28.2805C15.622 27.3038 15.5377 23.5133 15.6247 20.4048C15.626 20.3523 15.6377 20.3007 15.659 20.2528C15.6804 20.2049 15.711 20.1617 15.7491 20.1257C15.7872 20.0896 15.8321 20.0615 15.8811 20.0429C15.9301 20.0243 15.9823 20.0156 16.0347 20.0173C16.0871 20.0187 16.1387 20.0304 16.1865 20.0518C16.2343 20.0731 16.2774 20.1037 16.3134 20.1418C16.3494 20.1798 16.3776 20.2246 16.3962 20.2736C16.4149 20.3225 16.4237 20.3746 16.4222 20.427C16.322 24.0123 16.4642 27.2613 16.7532 27.9843C17.2042 29.1115 17.8882 30.0975 19.822 29.6833C21.6577 29.2895 22.3452 28.5935 22.6515 26.8183C22.8865 25.456 23.3512 21.5805 23.4085 20.8158C23.4123 20.7635 23.4264 20.7125 23.45 20.6657C23.4736 20.6189 23.5061 20.5772 23.5459 20.543C23.5856 20.5088 23.6316 20.4828 23.6814 20.4665C23.7312 20.4501 23.7837 20.4438 23.836 20.4478C23.9414 20.4557 24.0394 20.5052 24.1084 20.5854C24.1774 20.6655 24.2118 20.7698 24.204 20.8753C24.1442 21.6715 23.6817 25.5395 23.4377 26.954C23.0762 29.0508 22.1415 30.0018 19.9892 30.4633C19.6235 30.5415 19.2912 30.5765 18.9892 30.5768ZM7.83024 22.6165C7.65036 22.6159 7.47174 22.5863 7.30124 22.529C5.96449 22.083 4.69124 19.906 3.51674 16.0578C2.62274 13.1285 2.05624 10.071 2.00649 9.07725C1.85924 6.13125 2.61774 4.047 4.26149 2.88275C7.51324 0.578751 12.9835 2.77275 13.2147 2.86725C13.3127 2.90727 13.3908 2.98456 13.4317 3.08212C13.4727 3.17969 13.4733 3.28954 13.4332 3.3875C13.3932 3.48547 13.3159 3.56352 13.2184 3.6045C13.1208 3.64548 13.011 3.64602 12.913 3.606C12.8602 3.5845 7.61474 1.483 4.72099 3.53475C3.31549 4.53125 2.67024 6.38275 2.80299 9.0375C2.84474 9.87475 3.37399 12.8588 4.27949 15.8248C5.32799 19.2603 6.52124 21.428 7.55349 21.7723C7.71549 21.8263 8.20849 21.9905 8.91324 21.143C9.7351 20.156 10.5878 19.195 11.47 18.2615C11.5438 18.1879 11.6435 18.1461 11.7478 18.145C11.852 18.144 11.9526 18.1838 12.0278 18.2559C12.1031 18.3281 12.1472 18.4268 12.1506 18.531C12.1539 18.6352 12.1164 18.7366 12.046 18.8135C12.034 18.826 10.8342 20.0803 9.52674 21.6533C8.90749 22.398 8.31399 22.6165 7.83024 22.6165ZM25.1875 19.2553C25.1152 19.2552 25.0442 19.2354 24.9823 19.1981C24.9203 19.1608 24.8697 19.1074 24.8357 19.0435C24.8018 18.9797 24.7858 18.9078 24.7896 18.8356C24.7933 18.7633 24.8166 18.6935 24.857 18.6335C28.5727 13.1198 29.877 6.4575 28.76 5.03C27.354 3.2335 25.3687 2.29525 22.859 2.241C21.0007 2.201 19.5237 2.6755 19.2822 2.75825L19.2215 2.783C18.9787 2.85925 18.7925 2.72625 18.7222 2.57075C18.6822 2.48166 18.6761 2.38099 18.7052 2.28773C18.7342 2.19447 18.7964 2.11507 18.88 2.0645C18.8915 2.05775 18.928 2.04225 18.9872 2.0205C19.3975 1.87025 20.897 1.42025 22.7542 1.4415C25.5312 1.471 27.8252 2.54175 29.3877 4.5385C30.127 5.48325 30.1287 7.65975 29.3925 10.5103C28.642 13.4165 27.2297 16.5398 25.5182 19.0795C25.4417 19.1938 25.3157 19.2553 25.1875 19.2553ZM25.3775 21.8078C24.743 21.8078 24.1742 21.7183 23.8337 21.5143C23.4837 21.3045 23.417 21.0195 23.4082 20.8683C23.3127 19.1908 24.2382 18.8988 24.7102 18.7655C24.6445 18.666 24.551 18.549 24.4542 18.4283C24.179 18.0843 23.802 17.6133 23.5115 16.9088C23.466 16.7988 23.3235 16.543 23.1585 16.2468C22.2637 14.6423 20.402 11.3035 21.598 9.59375C22.1515 8.8025 23.2537 8.491 24.8777 8.66475C24.4 7.20925 22.125 2.65625 16.7267 2.56775C15.1032 2.54075 13.7717 3.04 12.7712 4.05025C10.5312 6.3125 10.6122 10.4058 10.6135 10.4468C10.6149 10.4991 10.6059 10.5512 10.5872 10.6001C10.5684 10.6491 10.5402 10.6938 10.5041 10.7318C10.4681 10.7698 10.4249 10.8003 10.377 10.8216C10.3292 10.8429 10.2776 10.8546 10.2252 10.856C10.1729 10.8574 10.1208 10.8484 10.0718 10.8297C10.0229 10.8109 9.97821 10.7827 9.94021 10.7466C9.9022 10.7106 9.87168 10.6674 9.85036 10.6195C9.82905 10.5717 9.81737 10.5201 9.81599 10.4678C9.81099 10.286 9.72749 5.9905 12.2045 3.48875C13.3637 2.318 14.8897 1.74 16.74 1.77025C20.1935 1.827 22.4165 3.58275 23.673 5.0455C25.0427 6.63975 25.7142 8.39825 25.7695 8.98525C25.8107 9.42175 25.4975 9.509 25.4342 9.522L25.2902 9.52525C23.6965 9.27 22.674 9.44725 22.2512 10.0513C21.3415 11.3515 23.1027 14.5098 23.8547 15.8585C24.0467 16.2025 24.1852 16.4513 24.2487 16.6048C24.4957 17.2038 24.818 17.6063 25.0767 17.9298C25.3045 18.2143 25.5017 18.461 25.5722 18.7505C25.605 18.808 26.0697 19.4955 28.8275 18.9263C29.5187 18.7838 29.9332 18.9055 30.06 19.2888C30.3092 20.0425 28.9107 20.9218 28.1365 21.2813C27.4427 21.6038 26.3355 21.8078 25.3775 21.8078ZM24.2035 20.8025C24.291 20.8908 24.7287 21.043 25.6352 21.004C26.4412 20.9695 27.2912 20.7943 27.8012 20.5575C28.4535 20.2545 28.889 19.9158 29.1145 19.6845L28.9895 19.7075C27.2262 20.0715 25.979 20.023 25.2825 19.5633C25.2357 19.5323 25.1906 19.4988 25.1475 19.463C25.072 19.4928 25.0022 19.5123 24.9525 19.5263C24.5575 19.637 24.149 19.7518 24.2035 20.8025ZM12.813 23.0313C12.375 23.0313 11.914 22.9715 11.4432 22.8538C10.9555 22.7318 10.1332 22.3645 10.1457 21.7613C10.16 21.0845 11.1442 20.8815 11.5147 20.8053C12.8532 20.5295 12.9405 20.419 13.3587 19.8878C13.4807 19.733 13.6325 19.5403 13.8395 19.3093C14.1467 18.9653 14.4825 18.791 14.8375 18.791C15.0847 18.791 15.2875 18.8748 15.4215 18.9305C15.8485 19.1075 16.2047 19.5355 16.3512 20.0473C16.4835 20.509 16.4202 20.9535 16.1737 21.2988C15.3645 22.432 14.2022 23.0313 12.813 23.0313ZM11.0075 21.7955C11.1277 21.8885 11.3687 22.0128 11.637 22.0798C12.0447 22.1818 12.4402 22.2335 12.8132 22.2335C13.9497 22.2335 14.8622 21.763 15.525 20.835C15.6632 20.6415 15.6217 20.3958 15.5847 20.2665C15.5072 19.9958 15.3147 19.7495 15.1165 19.6673C15.009 19.6228 14.9197 19.5888 14.8377 19.5888C14.7937 19.5888 14.6597 19.5888 14.4342 19.841C14.2786 20.016 14.129 20.1963 13.9857 20.3815C13.4647 21.043 13.226 21.2675 11.676 21.5868C11.2977 21.6643 11.1037 21.7433 11.0075 21.7955ZM14.0747 19.9555C13.9795 19.9553 13.8875 19.9211 13.8153 19.8591C13.7431 19.797 13.6954 19.7111 13.681 19.617C13.6711 19.5508 13.6644 19.4841 13.661 19.4173C12.645 19.3983 11.6647 18.9623 10.9205 18.1858C9.97949 17.204 9.55124 15.8438 9.74574 14.454C9.95699 12.9448 9.87799 11.6125 9.83549 10.8968C9.82374 10.6978 9.81524 10.554 9.81574 10.4545C9.81649 10.3283 9.81899 9.9935 10.938 9.42625C11.336 9.2245 12.134 8.8725 13.0057 8.78225C14.45 8.633 15.402 9.27625 15.687 10.5938C16.4562 14.1508 15.748 15.724 15.2307 16.873C15.1345 17.087 15.0435 17.289 14.9707 17.4848L14.9065 17.6573C14.6332 18.39 14.397 19.023 14.4695 19.4958C14.4775 19.5475 14.4751 19.6004 14.4627 19.6512C14.4502 19.7021 14.4278 19.75 14.3968 19.7923C14.3658 19.8345 14.3268 19.8702 14.282 19.8974C14.2372 19.9245 14.1875 19.9426 14.1357 19.9505L14.0747 19.9555ZM10.616 10.565L10.6315 10.8498C10.6755 11.5933 10.7575 12.9768 10.5355 14.5648C10.3752 15.711 10.7252 16.8298 11.4962 17.6338C12.1055 18.2693 12.9072 18.62 13.7312 18.62H13.7482C13.8405 18.2313 13.9937 17.8208 14.1587 17.3785L14.2225 17.207C14.3047 16.986 14.401 16.772 14.503 16.5455C15.0007 15.4395 15.6205 14.0628 14.9067 10.7625C14.7655 10.1088 14.4227 9.7305 13.8595 9.60575C12.7025 9.35025 10.9782 10.2205 10.616 10.565ZM13.0235 10.3958C13.0035 10.5368 13.2817 10.9133 13.6447 10.9635C14.007 11.0143 14.317 10.7198 14.3367 10.5788C14.3565 10.4378 14.0785 10.2823 13.7155 10.2318C13.3527 10.1813 13.0427 10.2548 13.0235 10.3958ZM13.728 11.1023L13.6262 11.0953C13.4012 11.064 13.1737 10.9223 13.018 10.7158C12.9632 10.6433 12.874 10.5028 12.8917 10.3773C12.917 10.1933 13.1415 10.083 13.4917 10.083C13.57 10.083 13.6515 10.0888 13.7335 10.1003C13.925 10.1268 14.1027 10.182 14.234 10.2553C14.4615 10.3823 14.4782 10.524 14.468 10.5973C14.44 10.8005 14.1167 11.1023 13.728 11.1023ZM13.1557 10.4193C13.167 10.5063 13.3825 10.7933 13.663 10.832L13.7282 10.8365C13.9872 10.8365 14.1807 10.6328 14.2035 10.566C14.1795 10.5205 14.013 10.4075 13.6972 10.3635C13.6293 10.3537 13.5607 10.3488 13.492 10.3488C13.289 10.3488 13.1812 10.3945 13.1557 10.4193ZM24.057 10.108C24.0767 10.249 23.7987 10.6255 23.436 10.676C23.0735 10.7265 22.7632 10.4323 22.7432 10.2913C22.7242 10.1503 23.0022 9.9945 23.3647 9.94425C23.7272 9.8935 24.037 9.96725 24.057 10.108ZM23.3522 10.748C23.0032 10.748 22.702 10.4765 22.6772 10.3003C22.6485 10.0888 22.9967 9.928 23.3552 9.87825C23.4342 9.86725 23.5125 9.86175 23.5877 9.86175C23.8972 9.86175 24.1022 9.9525 24.1227 10.099C24.136 10.1938 24.0632 10.34 23.938 10.472C23.8552 10.5588 23.6815 10.709 23.4447 10.7418L23.3522 10.748ZM23.588 9.99475C23.519 9.99475 23.447 10 23.374 10.01C23.0137 10.0603 22.7987 10.2048 22.8092 10.2823C22.8212 10.3675 23.0512 10.6153 23.3525 10.6153L23.4267 10.61C23.6235 10.5828 23.7712 10.4543 23.8417 10.3803C23.9525 10.264 23.9965 10.1545 23.9912 10.1173C23.9842 10.0678 23.8512 9.99475 23.588 9.99475ZM24.5792 18.2055C24.507 18.2055 24.436 18.1859 24.3741 18.1488C24.3121 18.1116 24.2614 18.0583 24.2274 17.9945C24.1934 17.9307 24.1773 17.8589 24.181 17.7867C24.1847 17.7146 24.2079 17.6447 24.2482 17.5848C25.0977 16.316 24.9422 15.0223 24.792 13.771C24.7277 13.238 24.6617 12.6868 24.6787 12.1578C24.6962 11.6135 24.7655 11.1645 24.8322 10.7303C24.9115 10.2158 24.9865 9.72975 24.9555 9.15275C24.9527 9.10045 24.9602 9.04811 24.9776 8.99871C24.995 8.94931 25.0219 8.90383 25.0569 8.86485C25.0919 8.82587 25.1342 8.79417 25.1815 8.77154C25.2287 8.74892 25.2799 8.73582 25.3322 8.733C25.3845 8.73018 25.4369 8.73768 25.4863 8.75509C25.5357 8.77249 25.5812 8.79946 25.6201 8.83444C25.6591 8.86943 25.6908 8.91175 25.7134 8.95898C25.7361 9.00622 25.7492 9.05745 25.752 9.10975C25.7875 9.76925 25.7027 10.3193 25.6207 10.8515C25.5575 11.2623 25.492 11.687 25.4762 12.1833C25.461 12.6518 25.5207 13.1493 25.584 13.6758C25.744 15.0063 25.9252 16.5143 24.9112 18.0285C24.8747 18.083 24.8253 18.1277 24.7674 18.1586C24.7095 18.1895 24.6449 18.2056 24.5792 18.2055Z" fill="white"/>
</svg>
