<svg width="33" height="32" viewBox="0 0 33 32" fill="none" xmlns="http://www.w3.org/2000/svg">
<g clip-path="url(#clip0_2005_975)">
<path d="M16.6095 18.85C18.1835 18.85 19.4595 17.574 19.4595 16C19.4595 14.426 18.1835 13.15 16.6095 13.15C15.0355 13.15 13.7595 14.426 13.7595 16C13.7595 17.574 15.0355 18.85 16.6095 18.85Z" fill="#61DAFB"/>
<path d="M27.4345 11.3C26.8845 11.1 26.3095 10.9 25.7095 10.725C25.8595 10.125 25.9845 9.525 26.0845 8.95C26.6095 5.65 26.0345 3.325 24.4345 2.425C23.9595 2.15 23.4345 2.025 22.8345 2.025C21.0845 2.025 18.8595 3.325 16.6095 5.5C14.3595 3.325 12.1345 2.025 10.3845 2.025C9.78447 2.025 9.25947 2.15 8.78447 2.425C7.18447 3.35 6.60947 5.675 7.13447 8.95C7.23447 9.525 7.35947 10.125 7.50947 10.725C6.90947 10.9 6.33447 11.075 5.78447 11.3C2.65947 12.5 0.959473 14.15 0.959473 16C0.959473 17.85 2.68447 19.5 5.78447 20.7C6.33447 20.9 6.90947 21.1 7.50947 21.275C7.35947 21.875 7.23447 22.475 7.13447 23.05C6.60947 26.35 7.18447 28.675 8.78447 29.575C9.25947 29.85 9.78447 29.975 10.3845 29.975C12.1595 29.975 14.3845 28.675 16.6095 26.5C18.8595 28.675 21.0845 29.975 22.8345 29.975C23.4345 29.975 23.9595 29.85 24.4345 29.575C26.0345 28.65 26.6095 26.325 26.0845 23.05C25.9845 22.475 25.8595 21.875 25.7095 21.275C26.3095 21.1 26.8845 20.925 27.4345 20.7C30.5595 19.5 32.2595 17.85 32.2595 16C32.2595 14.15 30.5595 12.5 27.4345 11.3ZM23.7345 3.675C24.7595 4.275 25.1095 6.125 24.6845 8.75C24.6095 9.275 24.4845 9.825 24.3345 10.4C23.0345 10.1 21.6595 9.9 20.2095 9.775C19.3595 8.575 18.4845 7.5 17.6095 6.525C19.4595 4.7 21.3345 3.45 22.8595 3.45C23.1845 3.45 23.4845 3.525 23.7345 3.675ZM20.9345 18.5C20.4845 19.3 19.9595 20.1 19.4095 20.9C18.4845 20.975 17.5595 21 16.6095 21C15.6345 21 14.7095 20.975 13.8095 20.9C13.2595 20.1 12.7595 19.3 12.3095 18.5C11.8345 17.675 11.3845 16.825 10.9845 16C11.3845 15.175 11.8345 14.325 12.3095 13.5C12.7595 12.7 13.2845 11.9 13.8345 11.1C14.7595 11.025 15.6845 11 16.6345 11C17.6095 11 18.5345 11.025 19.4345 11.1C19.9845 11.9 20.4845 12.7 20.9345 13.5C21.4095 14.325 21.8595 15.175 22.2595 16C21.8345 16.825 21.4095 17.65 20.9345 18.5ZM23.0095 17.675C23.3845 18.55 23.6845 19.4 23.9595 20.25C23.1095 20.45 22.2095 20.6 21.2595 20.725C21.5595 20.25 21.8845 19.75 22.1595 19.225C22.4595 18.7 22.7345 18.175 23.0095 17.675ZM16.6095 24.45C16.0095 23.8 15.4345 23.1 14.8845 22.375C15.4595 22.4 16.0345 22.425 16.6095 22.425C17.1845 22.425 17.7595 22.4 18.3345 22.375C17.7845 23.1 17.2095 23.8 16.6095 24.45ZM11.9595 20.7C11.0095 20.575 10.1095 20.425 9.25947 20.225C9.53447 19.4 9.83447 18.525 10.2095 17.65C10.4845 18.15 10.7595 18.675 11.0595 19.175C11.3595 19.725 11.6595 20.2 11.9595 20.7ZM10.2095 14.325C9.83447 13.45 9.53447 12.6 9.25947 11.75C10.1095 11.55 11.0095 11.4 11.9595 11.275C11.6595 11.75 11.3345 12.25 11.0595 12.775C10.7595 13.3 10.4845 13.825 10.2095 14.325ZM16.6095 7.55C17.2095 8.2 17.7845 8.9 18.3345 9.625C17.7595 9.6 17.1845 9.575 16.6095 9.575C16.0345 9.575 15.4595 9.6 14.8845 9.625C15.4345 8.9 16.0095 8.2 16.6095 7.55ZM22.1595 12.8L21.2595 11.3C22.2095 11.425 23.1095 11.575 23.9595 11.775C23.6845 12.6 23.3845 13.475 23.0095 14.35C22.7345 13.825 22.4595 13.3 22.1595 12.8ZM8.53447 8.75C8.10947 6.125 8.45947 4.275 9.48447 3.675C9.73447 3.525 10.0345 3.45 10.3595 3.45C11.8595 3.45 13.7345 4.675 15.6095 6.525C14.7345 7.475 13.8595 8.575 13.0095 9.775C11.5595 9.9 10.1845 10.125 8.88447 10.4C8.73447 9.825 8.63447 9.275 8.53447 8.75ZM2.35947 16C2.35947 14.825 3.78447 13.575 6.28447 12.65C6.78447 12.45 7.33447 12.275 7.88447 12.125C8.28447 13.375 8.78447 14.7 9.38447 16.025C8.78447 17.35 8.25947 18.65 7.88447 19.9C4.43447 18.9 2.35947 17.4 2.35947 16ZM9.48447 28.325C8.45947 27.725 8.10947 25.875 8.53447 23.25C8.60947 22.725 8.73447 22.175 8.88447 21.6C10.1845 21.9 11.5595 22.1 13.0095 22.225C13.8595 23.425 14.7345 24.5 15.6095 25.475C13.7595 27.3 11.8845 28.55 10.3595 28.55C10.0345 28.55 9.73447 28.475 9.48447 28.325ZM24.6845 23.25C25.1095 25.875 24.7595 27.725 23.7345 28.325C23.4845 28.475 23.1845 28.55 22.8595 28.55C21.3595 28.55 19.4845 27.325 17.6095 25.475C18.4845 24.525 19.3595 23.425 20.2095 22.225C21.6595 22.1 23.0345 21.875 24.3345 21.6C24.4845 22.175 24.5845 22.725 24.6845 23.25ZM26.9345 19.35C26.4345 19.55 25.8845 19.725 25.3345 19.875C24.9345 18.625 24.4345 17.3 23.8345 15.975C24.4345 14.65 24.9595 13.35 25.3345 12.1C28.7845 13.1 30.8595 14.6 30.8595 16C30.8595 17.175 29.4095 18.425 26.9345 19.35Z" fill="#61DAFB"/>
</g>
<defs>
<clipPath id="clip0_2005_975">
<rect width="32" height="32" fill="white" transform="translate(0.609375)"/>
</clipPath>
</defs>
</svg>
