<svg width="32" height="32" viewBox="0 0 32 32" fill="none" xmlns="http://www.w3.org/2000/svg">
<path d="M30.45 23.275C28.775 24.15 20.1 27.7 18.25 28.675C16.4 29.65 15.375 29.625 13.925 28.925C12.475 28.225 3.24995 24.525 1.57495 23.725C0.749951 23.325 0.324951 23 0.324951 22.675V19.5C0.324951 19.5 12.325 16.875 14.275 16.2C16.225 15.5 16.875 15.475 18.525 16.075C20.1749 16.675 30.0499 18.45 31.6749 19.05V22.175C31.6749 22.5 31.3 22.85 30.45 23.275Z" fill="#A41E11"/>
<path d="M30.4499 20.125C28.7749 21 20.0999 24.55 18.2499 25.525C16.3999 26.5 15.3749 26.475 13.9249 25.775C12.4749 25.075 3.24991 21.35 1.57491 20.55C-0.0750898 19.75 -0.12509 19.2 1.49991 18.575C3.12491 17.925 12.2999 14.325 14.2499 13.65C16.1999 12.95 16.8499 12.925 18.4999 13.525C20.1499 14.125 28.7749 17.55 30.3999 18.15C32.0749 18.75 32.1249 19.25 30.4499 20.125Z" fill="#D82C20"/>
<path d="M30.45 18.125C28.775 19 20.1 22.55 18.25 23.525C16.4 24.475 15.375 24.475 13.925 23.775C12.475 23.075 3.24995 19.35 1.57495 18.55C0.749951 18.15 0.324951 17.825 0.324951 17.5V14.325C0.324951 14.325 12.325 11.7 14.275 11.025C16.225 10.325 16.875 10.3 18.525 10.9C20.1749 11.5 30.0499 13.275 31.6749 13.875V17C31.6749 17.325 31.3 17.675 30.45 18.125Z" fill="#A41E11"/>
<path d="M30.4501 14.95C28.7751 15.825 20.1001 19.375 18.2501 20.35C16.4001 21.3 15.3751 21.3 13.9251 20.6C12.4751 19.9 3.25009 16.175 1.57509 15.375C-0.0999112 14.575 -0.124911 14.025 1.50009 13.4C3.12509 12.75 12.3001 9.15 14.2501 8.475C16.2001 7.775 16.8501 7.75 18.5001 8.35C20.1501 8.95 28.7751 12.375 30.4001 12.975C32.0751 13.575 32.1251 14.075 30.4501 14.95Z" fill="#D82C20"/>
<path d="M30.4501 12.75C28.7751 13.625 20.1 17.175 18.25 18.15C16.4 19.1 15.375 19.1 13.925 18.4C12.475 17.725 3.25005 14 1.57505 13.2C0.750049 12.8 0.300049 12.475 0.300049 12.15V8.975C0.300049 8.975 12.3 6.35 14.25 5.675C16.2 4.975 16.85 4.95 18.5 5.55C20.15 6.15 30.025 7.925 31.65 8.525V11.65C31.675 11.975 31.3001 12.3 30.4501 12.75Z" fill="#A41E11"/>
<path d="M30.4501 9.575C28.7751 10.45 20.1001 14 18.2501 14.975C16.4001 15.925 15.3751 15.925 13.9251 15.225C12.4751 14.525 3.25009 10.825 1.57509 10.025C-0.0999112 9.225 -0.124911 8.675 1.50009 8.05C3.12509 7.4 12.3001 3.8 14.2501 3.125C16.2001 2.425 16.8501 2.4 18.5001 3C20.1501 3.6 28.7751 7.025 30.4001 7.625C32.0751 8.225 32.1251 8.725 30.4501 9.575Z" fill="#D82C20"/>
<path d="M20.1 6.525L17.4 6.825L16.775 8.275L15.8 6.65L12.675 6.375L15 5.525L14.3 4.225L16.5 5.075L18.55 4.4L18 5.75L20.1 6.525ZM16.625 13.625L11.55 11.525L18.825 10.425L16.625 13.625Z" fill="white"/>
<path d="M9.6001 10.35C11.7402 10.35 13.4751 9.67843 13.4751 8.85C13.4751 8.02157 11.7402 7.35 9.6001 7.35C7.45999 7.35 5.7251 8.02157 5.7251 8.85C5.7251 9.67843 7.45999 10.35 9.6001 10.35Z" fill="white"/>
<path d="M23.325 6.925L27.625 8.625L23.325 10.325V6.925Z" fill="#7A0C00"/>
<path d="M18.575 8.825L23.325 6.925V10.325L22.85 10.525L18.575 8.825Z" fill="#AD2115"/>
</svg>
