<svg width="33" height="32" viewBox="0 0 33 32" fill="none" xmlns="http://www.w3.org/2000/svg">
<path d="M22.3962 21.556C23.5033 21.4433 24.3432 20.505 24.305 19.3789C24.2669 18.253 23.3124 17.3522 22.1671 17.3522H22.0908C20.9072 17.3897 19.9911 18.3656 20.0293 19.5291C20.0675 20.0921 20.2965 20.58 20.6401 20.9178C19.3421 23.4326 17.3569 25.2717 14.3792 26.8106C12.3558 27.8615 10.2562 28.2369 8.15652 27.9742C6.43855 27.749 5.10238 26.9984 4.26238 25.7596C3.04081 23.9205 2.92632 21.9312 3.9571 19.942C4.68249 18.5157 5.82765 17.4647 6.55304 16.9392C6.40035 16.4513 6.17124 15.6256 6.05675 15.0251C0.52117 18.9661 1.09387 24.2959 2.77363 26.8106C4.03339 28.6873 6.59124 29.8509 9.41628 29.8509C10.1798 29.8509 10.9433 29.7757 11.7069 29.5882C16.5935 28.6498 20.2966 25.7972 22.3962 21.556ZM29.1153 16.9018C26.2139 13.5613 21.9381 11.7222 17.0515 11.7222H16.4408C16.0972 11.0466 15.3718 10.5961 14.5701 10.5961H14.4937C13.3103 10.6337 12.3942 11.6095 12.4323 12.7731C12.4705 13.8991 13.4248 14.7999 14.5701 14.7999H14.6464C15.4863 14.7624 16.2117 14.2369 16.5171 13.5237H17.2042C20.1057 13.5237 22.8543 14.3494 25.3359 15.9634C27.2446 17.202 28.619 18.816 29.3825 20.7677C30.0315 22.3441 29.9933 23.883 29.3061 25.1967C28.2372 27.1859 26.443 28.2744 24.076 28.2744C22.5489 28.2744 21.0983 27.824 20.3347 27.4862C19.9148 27.8615 19.1512 28.462 18.6167 28.8375C20.2584 29.5881 21.9381 30.001 23.5415 30.001C27.2064 30.001 29.917 28.0116 30.9478 26.0224C32.0548 23.8454 31.9784 20.0921 29.1153 16.9018ZM9.72167 22.1939C9.75988 23.3199 10.7143 24.2206 11.8596 24.2206H11.936C13.1194 24.1832 14.0356 23.2073 13.9974 22.0438C13.9593 20.9177 13.0048 20.017 11.8596 20.017H11.7833C11.7069 20.017 11.5923 20.017 11.5161 20.0544C9.95077 17.5022 9.30179 14.7248 9.53089 11.7221C9.68347 9.47006 10.4471 7.51828 11.7833 5.9043C12.8903 4.51555 15.0282 3.83996 16.479 3.80252C20.5256 3.7274 22.2434 8.68179 22.358 10.6711C22.8543 10.7837 23.6942 11.0465 24.2669 11.2342C23.8087 5.15382 19.9911 2.00098 16.3263 2.00098C12.8903 2.00098 9.72167 4.44067 8.46179 8.04387C6.70574 12.8481 7.85101 17.4647 9.98886 21.1055C9.79808 21.3682 9.68347 21.781 9.72167 22.1939Z" fill="#764ABC"/>
</svg>
