<svg width="32" height="32" viewBox="0 0 32 32" fill="none" xmlns="http://www.w3.org/2000/svg">
<path d="M31.392 15.6125L30.063 14.7895C30.054 14.6585 30.043 14.5285 30.027 14.4045L31.168 13.3415C31.412 13.1065 31.329 12.6945 31.016 12.5765L29.557 12.0335C29.521 11.9045 29.485 11.7785 29.444 11.6535L30.349 10.3935C30.553 10.1175 30.392 9.7325 30.053 9.6745L28.516 9.4235C28.459 9.3085 28.396 9.1945 28.335 9.0795L28.98 7.6635C29.048 7.5185 29.032 7.3515 28.944 7.2205C28.855 7.0895 28.704 7.0125 28.548 7.0175L26.985 7.0745C26.906 6.9695 26.824 6.8705 26.74 6.7715L27.1 5.2555C27.177 4.9225 26.881 4.6265 26.548 4.7035L25.032 5.0635C24.933 4.9795 24.835 4.8965 24.729 4.8185L24.786 3.2555C24.802 2.9165 24.447 2.6785 24.141 2.8235L22.725 3.4685C22.61 3.4075 22.496 3.3445 22.376 3.2875L22.125 1.7505C22.068 1.4175 21.682 1.2555 21.406 1.4545L20.146 2.3595C20.021 2.3185 19.895 2.2825 19.771 2.2465L19.223 0.793499C19.104 0.474499 18.692 0.392499 18.463 0.636499L17.4 1.7835C17.271 1.7675 17.14 1.7515 17.009 1.7425L16.192 0.418499C16.015 0.127499 15.593 0.127499 15.416 0.418499L14.593 1.7425C14.462 1.7515 14.333 1.7675 14.208 1.7835L13.145 0.636499C12.91 0.392499 12.5 0.469499 12.38 0.793499L11.837 2.2465C11.708 2.2825 11.588 2.3235 11.457 2.3595L10.197 1.4545C9.921 1.2555 9.536 1.4175 9.478 1.7505L9.227 3.2875C9.112 3.3445 8.999 3.4075 8.884 3.4685L7.467 2.8235C7.155 2.6835 6.806 2.9165 6.822 3.2555L6.874 4.8185C6.775 4.8975 6.675 4.9795 6.577 5.0635L5.057 4.7035C4.728 4.6265 4.432 4.9225 4.509 5.2555L4.864 6.7715C4.78 6.8705 4.703 6.9685 4.619 7.0745L3.062 7.0175C2.719 7.0065 2.49 7.3565 2.63 7.6625L3.277 9.0785C3.214 9.1935 3.152 9.3075 3.089 9.4225L1.553 9.6735C1.22 9.7305 1.062 10.1165 1.256 10.3925L2.168 11.6525C2.125 11.7835 2.089 11.9035 2.053 12.0325L0.594 12.5755C0.277 12.6945 0.198 13.1065 0.443 13.3405L1.583 14.4035C1.567 14.5275 1.556 14.6585 1.547 14.7885L0.219 15.6115C-0.073 15.7835 -0.073 16.2105 0.219 16.3825L1.547 17.2055C1.556 17.3365 1.567 17.4665 1.583 17.5905L0.443 18.6585C0.192 18.8875 0.276 19.2995 0.594 19.4185L2.053 19.9665C2.089 20.0905 2.125 20.2155 2.168 20.3415L1.256 21.6015C1.059 21.8775 1.22 22.2685 1.557 22.3205L3.094 22.5715C3.151 22.6865 3.214 22.8005 3.277 22.9155L2.63 24.3315C2.49 24.6435 2.725 24.9925 3.062 24.9765L4.619 24.9245C4.703 25.0245 4.78 25.1235 4.87 25.2215L4.51 26.7425C4.433 27.0705 4.729 27.3665 5.058 27.2895L6.578 26.9345C6.677 27.0185 6.777 27.0955 6.881 27.1795L6.824 28.7365C6.808 29.0795 7.163 29.3135 7.469 29.1685L8.886 28.5235C9.001 28.5845 9.114 28.6475 9.229 28.7105L9.485 30.2475C9.537 30.5805 9.922 30.7365 10.198 30.5435L11.463 29.6325C11.588 29.6735 11.714 29.7095 11.838 29.7455L12.386 31.2045C12.501 31.5275 12.911 31.6055 13.146 31.3565L14.209 30.2155C14.338 30.2315 14.464 30.2475 14.594 30.2565L15.417 31.5845C15.594 31.8715 16.016 31.8715 16.193 31.5845L17.016 30.2565C17.147 30.2475 17.272 30.2315 17.401 30.2155L18.464 31.3565C18.699 31.6005 19.105 31.5235 19.224 31.2045L19.772 29.7455C19.896 29.7095 20.021 29.6735 20.147 29.6325L21.407 30.5435C21.683 30.7465 22.074 30.5805 22.126 30.2475L22.377 28.7105C22.497 28.6475 22.612 28.5855 22.726 28.5235L24.142 29.1685C24.449 29.3085 24.798 29.0755 24.787 28.7365L24.73 27.1795C24.835 27.0955 24.934 27.0185 25.027 26.9345L26.548 27.2895C26.876 27.3665 27.172 27.0705 27.1 26.7425L26.74 25.2215C26.824 25.1225 26.907 25.0245 26.985 24.9245L28.548 24.9765C28.887 24.9925 29.12 24.6435 28.98 24.3315L28.335 22.9155C28.396 22.8005 28.459 22.6865 28.516 22.5715L30.053 22.3205C30.386 22.2635 30.548 21.8775 30.349 21.6015L29.444 20.3415L29.557 19.9665L31.01 19.4185C31.334 19.2995 31.411 18.8875 31.167 18.6585L30.026 17.5905C30.037 17.4665 30.053 17.3355 30.062 17.2055L31.391 16.3825C31.682 16.2105 31.682 15.7835 31.391 15.6115L31.392 15.6125ZM22.511 26.6125C21.287 26.3525 21.678 24.5135 22.907 24.7735C23.412 24.8825 23.735 25.3825 23.626 25.8935C23.517 26.3985 23.017 26.7215 22.511 26.6125ZM22.063 23.5655C21.6 23.4665 21.142 23.7625 21.048 24.2265L20.573 26.4185C19.12 27.0795 17.505 27.4505 15.808 27.4505C14.125 27.4505 12.464 27.0855 10.944 26.3775L10.469 24.1805C10.37 23.7165 9.917 23.4195 9.453 23.5245L7.516 23.9355C7.152 23.5665 6.819 23.1705 6.511 22.7525H15.954C16.059 22.7525 16.131 22.7375 16.131 22.6375V19.3005C16.131 19.2005 16.059 19.1855 15.954 19.1855H13.189V17.0655H16.178C16.449 17.0655 17.637 17.1425 18.011 18.6585C18.131 19.1225 18.392 20.6375 18.568 21.1225C18.745 21.6695 19.469 22.7515 20.24 22.7515H24.944C25.001 22.7515 25.059 22.7465 25.115 22.7365C24.792 23.1795 24.434 23.6005 24.048 23.9915L22.063 23.5655ZM9.005 26.5705C8.496 26.6745 7.996 26.3515 7.886 25.8465C7.777 25.3355 8.099 24.8355 8.61 24.7315C9.114 24.6225 9.614 24.9445 9.725 25.4505C9.834 25.9615 9.51 26.4615 9.005 26.5705ZM5.423 12.0445C5.652 12.5245 5.444 13.0965 4.959 13.3155C4.475 13.5285 3.907 13.3005 3.704 12.8105C3.245 11.6865 4.896 10.9515 5.423 12.0455V12.0445ZM4.324 14.6535L6.344 13.7575C6.777 13.5655 6.969 13.0605 6.777 12.6285L6.36 11.6855H8.001V19.0655H4.698C4.291 17.6335 4.163 16.1335 4.324 14.6535ZM13.193 13.9405V11.7635H17.089C17.292 11.7635 18.51 11.9985 18.51 12.9105C18.51 13.6705 17.573 13.9415 16.807 13.9415L13.193 13.9405ZM27.36 15.8985C27.36 16.1855 27.349 16.4705 27.329 16.7515H26.141C26.021 16.7515 25.974 16.8305 25.974 16.9505V17.4915C25.974 18.7725 25.255 19.0485 24.619 19.1225C24.015 19.1905 23.348 18.8715 23.266 18.5025C22.911 16.5025 22.318 16.0755 21.381 15.3355C22.542 14.5955 23.75 13.5125 23.75 12.0545C23.75 10.4815 22.671 9.4915 21.938 9.0075C20.906 8.3245 19.766 8.1905 19.458 8.1905H7.203C8.895 6.2945 11.167 5.0135 13.662 4.5385L15.11 6.0595C15.433 6.3985 15.979 6.4125 16.318 6.0845L17.933 4.5375C21.272 5.1625 24.162 7.2205 25.844 10.1685L24.735 12.6685C24.548 13.1005 24.74 13.6055 25.172 13.7995L27.303 14.7465C27.339 15.1275 27.355 15.5075 27.355 15.8985H27.36ZM15.111 3.2525C16.016 2.3885 17.314 3.7475 16.407 4.6125C15.506 5.3935 14.292 4.1175 15.111 3.2525ZM26.095 12.0905C26.303 11.6175 26.855 11.4035 27.33 11.6115C28.101 11.9505 28.074 13.0485 27.293 13.3515C26.506 13.6525 25.751 12.8565 26.095 12.0905Z" fill="white"/>
</svg>
