<svg width="32" height="32" viewBox="0 0 32 32" fill="none" xmlns="http://www.w3.org/2000/svg">
<g clip-path="url(#clip0_2005_242)">
<path d="M15.9877 0.00025177C7.17399 0.00025177 0.000244141 7.174 0.000244141 15.9878C0.000244141 24.8015 7.17399 31.9753 15.9877 31.9753C24.8015 31.9753 31.9752 24.8015 31.9752 15.9878C31.9752 7.174 24.8017 0.00025177 15.9877 0.00025177ZM15.9877 2.67C23.3587 2.67 29.3057 8.61675 29.3057 15.9878C29.3057 23.359 23.3587 29.3058 15.9877 29.3058C8.61674 29.3058 2.66974 23.359 2.66974 15.9878C2.66974 8.61675 8.61674 2.67 15.9877 2.67Z" fill="white"/>
<path fill-rule="evenodd" clip-rule="evenodd" d="M12.0975 15.179C15.5985 12.319 19.023 9.3595 22.6003 6.583C20.724 9.46625 18.7943 12.3113 16.918 15.1943C15.3088 15.2017 13.6993 15.2017 12.0975 15.179ZM15.057 16.773C16.674 16.773 18.2833 16.773 19.8925 16.796C16.3688 19.641 12.9595 22.6233 9.37476 25.392C11.251 22.5087 13.1808 19.6563 15.057 16.773Z" fill="white"/>
</g>
<defs>
<clipPath id="clip0_2005_242">
<rect width="32" height="32" fill="white"/>
</clipPath>
</defs>
</svg>
