<svg width="33" height="32" viewBox="0 0 33 32" fill="none" xmlns="http://www.w3.org/2000/svg">
<path d="M9.60938 13.7C10.5427 9.96666 12.876 8.1 16.6094 8.1C22.2094 8.1 22.9094 12.3 25.7094 13C27.576 13.4667 29.2094 12.7667 30.6094 10.9C29.676 14.6333 27.3427 16.5 23.6094 16.5C18.0094 16.5 17.3094 12.3 14.5094 11.6C12.6427 11.1333 11.0094 11.8333 9.60938 13.7ZM2.60938 22.1C3.54271 18.3667 5.87604 16.5 9.60938 16.5C15.2094 16.5 15.9094 20.7 18.7094 21.4C20.576 21.8667 22.2094 21.1667 23.6094 19.3C22.676 23.0333 20.3427 24.9 16.6094 24.9C11.0094 24.9 10.3094 20.7 7.50938 20C5.64271 19.5333 4.00937 20.2333 2.60938 22.1Z" fill="#44A8B3"/>
</svg>
