<svg width="33" height="32" viewBox="0 0 33 32" fill="none" xmlns="http://www.w3.org/2000/svg">
<path d="M20.8047 12.5C20.8047 13.8807 19.6854 15 18.3047 15C16.9239 15 15.8047 13.8807 15.8047 12.5C15.8047 11.1193 16.9239 10 18.3047 10C19.6854 10 20.8047 11.1193 20.8047 12.5Z" fill="#FFC131"/>
<path d="M14.3047 16C12.924 16 11.8047 17.1193 11.8047 18.5C11.8047 19.8807 12.924 21 14.3047 21C15.6854 21 16.8047 19.8807 16.8047 18.5C16.8047 17.1193 15.6854 16 14.3047 16Z" fill="#24C8DB"/>
<path fill-rule="evenodd" clip-rule="evenodd" d="M22.8281 19.8908C21.9088 20.4849 20.8902 20.8973 19.8272 21.1119C20.0448 20.4845 20.163 19.8106 20.163 19.1092C20.163 18.8548 20.1475 18.604 20.1173 18.3578C20.5746 18.1984 21.0136 17.9846 21.4245 17.7191C22.4131 17.0802 23.1961 16.1694 23.6795 15.0962C24.163 14.0231 24.3263 12.8331 24.1497 11.6694C23.9733 10.5057 23.4645 9.41763 22.6846 8.53607C21.9046 7.6545 20.8868 7.01688 19.7532 6.69984C18.6197 6.38278 17.4187 6.39978 16.2946 6.74879C15.1705 7.0978 14.1711 7.76398 13.4164 8.66726C13.3198 8.78296 13.2276 8.90193 13.1402 9.02387C11.9756 9.15325 10.8477 9.48283 9.80469 9.99267C10.1442 8.90576 10.6954 7.89107 11.432 7.00939C12.5059 5.72395 13.9282 4.77594 15.5279 4.27927C17.1276 3.7826 18.8366 3.75841 20.4497 4.2096C22.0629 4.66078 23.5114 5.56815 24.6213 6.82269C25.7312 8.07723 26.4551 9.62555 26.7063 11.2816C26.9575 12.9377 26.7251 14.6311 26.0371 16.1583C25.3492 17.6855 24.2348 18.9816 22.8281 19.8908ZM9.90825 11.5789L12.0405 11.8408C12.0913 11.4275 12.1839 11.0225 12.3157 10.6317C11.4701 10.8258 10.6585 11.1453 9.90825 11.5789Z" fill="#FFC131"/>
<path fill-rule="evenodd" clip-rule="evenodd" d="M9.78067 11.1127C10.7067 10.5142 11.7336 10.1001 12.805 9.88705C12.5628 10.5448 12.4306 11.2558 12.4306 11.9977C12.4306 12.2196 12.4424 12.4387 12.4655 12.6545C12.0174 12.8128 11.5871 13.0236 11.1841 13.2841C10.1956 13.9229 9.41273 14.8336 8.92936 15.9065C8.44598 16.9795 8.28273 18.1693 8.45921 19.3328C8.63568 20.4964 9.14437 21.5843 9.92417 22.4657C10.704 23.3472 11.7217 23.9847 12.8551 24.3017C13.9884 24.6186 15.1892 24.6016 16.3131 24.2527C17.4371 23.9037 18.4364 23.2376 19.1909 22.3345C19.288 22.2183 19.3806 22.0987 19.4684 21.9761C20.6337 21.8448 21.7618 21.513 22.8047 21.0008C22.4655 22.0907 21.9134 23.1083 21.175 23.9922C20.1012 25.2774 18.6793 26.2253 17.0797 26.7218C15.4803 27.2184 13.7715 27.2427 12.1586 26.7915C10.5458 26.3404 9.09748 25.4332 7.98778 24.1788C6.87807 22.9245 6.15416 21.3764 5.90302 19.7205C5.65189 18.0647 5.88421 16.3716 6.57208 14.8446C7.25995 13.3176 8.3741 12.0218 9.78067 11.1127Z" fill="#24C8DB"/>
</svg>
