<svg width="32" height="32" viewBox="0 0 32 32" fill="none" xmlns="http://www.w3.org/2000/svg">
<path d="M28 0H4C1.79086 0 0 1.79086 0 4V28C0 30.2091 1.79086 32 4 32H28C30.2091 32 32 30.2091 32 28V4C32 1.79086 30.2091 0 28 0Z" fill="#1794D4"/>
<path d="M7.01611 16.056V17.36H11.1761V29.2H14.1281V17.36H18.2881V16.08C18.2881 15.36 18.2881 14.776 18.2561 14.76C18.2561 14.736 15.7201 14.728 12.6401 14.728L7.04011 14.752V16.064L7.01611 16.056ZM25.7121 14.72C26.5281 14.912 27.1521 15.28 27.7121 15.864C28.0081 16.184 28.4481 16.744 28.4801 16.888C28.4801 16.936 27.0961 17.872 26.2561 18.392C26.2241 18.416 26.0961 18.28 25.9681 18.072C25.5521 17.48 25.1281 17.224 24.4641 17.176C23.5041 17.112 22.8641 17.616 22.8641 18.456C22.8641 18.712 22.9121 18.856 23.0081 19.064C23.2241 19.504 23.6241 19.768 24.8641 20.312C27.1521 21.296 28.1441 21.944 28.7441 22.872C29.4241 23.912 29.5761 25.544 29.1201 26.768C28.6081 28.104 27.3601 29.008 25.5761 29.304C25.0161 29.4 23.7361 29.384 23.1361 29.28C21.8561 29.04 20.6321 28.4 19.8801 27.576C19.5841 27.256 19.0161 26.4 19.0481 26.344L19.3521 26.152L20.5521 25.456L21.4561 24.928L21.6641 25.208C21.9281 25.624 22.5201 26.184 22.8641 26.376C23.9041 26.912 25.2961 26.84 25.9841 26.216C26.2801 25.944 26.4081 25.656 26.4081 25.256C26.4081 24.888 26.3521 24.72 26.1681 24.44C25.9121 24.088 25.4001 23.8 23.9601 23.16C22.3041 22.456 21.6001 22.008 20.9441 21.32C20.5681 20.904 20.2241 20.256 20.0641 19.72C19.9441 19.256 19.9041 18.12 20.0161 17.664C20.3601 16.064 21.5681 14.944 23.2961 14.624C23.8561 14.512 25.1761 14.56 25.7281 14.704L25.7121 14.72Z" fill="white"/>
</svg>
