<svg width="33" height="32" viewBox="0 0 33 32" fill="none" xmlns="http://www.w3.org/2000/svg">
<path d="M30.4929 6.14599L17.3511 29.6457C17.0797 30.1308 16.3827 30.1337 16.1072 29.6509L2.70493 6.14819C2.40493 5.62199 2.85473 4.98469 3.45093 5.09119L16.6069 7.44279C16.6908 7.4578 16.7768 7.45766 16.8606 7.44239L29.7414 5.09459C30.3356 4.98629 30.7877 5.61879 30.4929 6.14599Z" fill="url(#paint0_linear_2005_157)"/>
<path d="M22.8738 2.0069L13.1485 3.9125C13.0707 3.92771 13.0003 3.96832 12.9482 4.02795C12.896 4.08758 12.8652 4.16284 12.8606 4.2419L12.2624 14.3457C12.2484 14.5837 12.4669 14.7684 12.6991 14.7148L15.4068 14.09C15.6602 14.0315 15.8891 14.2547 15.837 14.5094L15.0326 18.4487C14.9784 18.7137 15.2273 18.9405 15.4862 18.8619L17.1586 18.3537C17.4179 18.275 17.667 18.5024 17.6122 18.7677L16.3338 24.9554C16.2538 25.3424 16.7686 25.5534 16.9833 25.2216L17.1267 25L25.0514 9.1848C25.1841 8.92 24.9554 8.6181 24.6644 8.6742L21.8774 9.2121C21.6154 9.2626 21.3926 9.0187 21.4665 8.7624L23.2856 2.4564C23.3596 2.1996 23.136 1.9555 22.8738 2.0069Z" fill="url(#paint1_linear_2005_157)"/>
<defs>
<linearGradient id="paint0_linear_2005_157" x1="2.37766" y1="4.25125" x2="18.7328" y2="26.4629" gradientUnits="userSpaceOnUse">
<stop stop-color="#41D1FF"/>
<stop offset="1" stop-color="#BD34FE"/>
</linearGradient>
<linearGradient id="paint1_linear_2005_157" x1="15.8511" y1="2.52419" x2="18.8097" y2="22.8197" gradientUnits="userSpaceOnUse">
<stop stop-color="#FFEA83"/>
<stop offset="0.0833" stop-color="#FFDD35"/>
<stop offset="1" stop-color="#FFA800"/>
</linearGradient>
</defs>
</svg>
